<svg xmlns="http://www.w3.org/2000/svg" version="1.1" xmlns:xlink="http://www.w3.org/1999/xlink" xmlns:svgjs="http://svgjs.dev/svgjs" width="1440" height="560" preserveAspectRatio="none" viewBox="0 0 1440 560"><g mask="url(&quot;#SvgjsMask1041&quot;)" fill="none"><path d="M1560 560L0 560 L0 351.81Q42.75 274.56, 120 317.31Q147.04 272.35, 192 299.38Q267.06 254.44, 312 329.51Q392.12 289.63, 432 369.74Q437.13 302.87, 504 307.99Q529.93 261.93, 576 287.86Q669.66 261.52, 696 355.19Q748.03 287.22, 816 339.25Q825.78 277.03, 888 286.81Q931.21 258.02, 960 301.24Q1001.69 270.94, 1032 312.63Q1095.92 304.56, 1104 368.48Q1132.97 325.45, 1176 354.41Q1200.17 306.59, 1248 330.76Q1270.55 281.31, 1320 303.86Q1369.89 233.75, 1440 283.65Q1542.22 265.87, 1560 368.08z" fill="rgba(255, 141, 67, 1)"></path><path d="M1536 560L0 560 L0 407.75Q43.11 378.86, 72 421.97Q120.04 398.01, 144 446.06Q197.99 380.05, 264 434.04Q293.64 343.69, 384 373.33Q434.59 303.92, 504 354.52Q586.05 316.57, 624 398.63Q649.27 351.9, 696 377.17Q751.79 360.96, 768 416.75Q815.09 391.84, 840 438.92Q893.98 372.9, 960 426.88Q1009.4 356.28, 1080 405.69Q1122.44 328.13, 1200 370.58Q1228.19 326.77, 1272 354.97Q1334.05 345.02, 1344 407.08Q1386.58 377.65, 1416 420.23Q1486.7 370.94, 1536 441.64z" fill="rgba(255, 157, 93, 1)"></path><path d="M1560 560L0 560 L0 481.75Q68.23 429.98, 120 498.21Q163.09 469.3, 192 512.39Q192.48 440.87, 264 441.35Q293.47 398.82, 336 428.29Q411.73 384.02, 456 459.75Q502.29 434.04, 528 480.33Q564.27 396.6, 648 432.86Q714.45 379.31, 768 445.77Q844.14 401.91, 888 478.05Q938.3 408.35, 1008 458.65Q1095.71 426.36, 1128 514.07Q1154.62 468.69, 1200 495.3Q1252.48 427.78, 1320 480.27Q1357.44 397.71, 1440 435.15Q1528.37 403.51, 1560 491.88z" fill="rgba(255, 190, 146, 1)"></path><path d="M1488 560L0 560 L0 501.7Q41.11 470.81, 72 511.92Q168.39 488.31, 192 584.7Q211.2 531.9, 264 551.11Q291.77 506.88, 336 534.65Q379.67 458.32, 456 501.98Q552.24 478.22, 576 574.46Q581.09 507.55, 648 512.63Q674.45 467.08, 720 493.53Q777.92 479.45, 792 537.38Q835.14 460.52, 912 503.66Q941.66 461.32, 984 490.98Q1068.93 455.91, 1104 540.84Q1148.92 465.76, 1224 510.69Q1319.08 485.76, 1344 580.84Q1374.13 538.97, 1416 569.1Q1423.44 504.54, 1488 511.98z" fill="rgba(241, 241, 241, 1)"></path></g><defs><mask id="SvgjsMask1041"><rect width="1440" height="560" fill="#ffffff"></rect></mask></defs></svg>