<svg xmlns="http://www.w3.org/2000/svg" version="1.1" xmlns:xlink="http://www.w3.org/1999/xlink" xmlns:svgjs="http://svgjs.dev/svgjs" width="1440" height="560" preserveAspectRatio="none" viewBox="0 0 1440 560"><g mask="url(&quot;#SvgjsMask1002&quot;)" fill="none"><path d="M1488 560L0 560 L0 331.28Q18.81 278.08, 72 296.89Q158.1 262.99, 192 349.09Q196.55 281.63, 264 286.18Q329.77 231.95, 384 297.72Q444.11 285.83, 456 345.93Q526.8 296.73, 576 367.52Q592.62 312.14, 648 328.76Q695.18 255.94, 768 303.11Q829.65 292.76, 840 354.41Q866.95 309.37, 912 336.32Q938.9 291.23, 984 318.13Q1035.95 298.09, 1056 350.04Q1085.64 259.69, 1176 289.33Q1260.81 254.13, 1296 338.94Q1350.89 273.83, 1416 328.72Q1473.75 314.47, 1488 372.22z" fill="rgba(184, 184, 184, 1)"></path><path d="M1560 560L0 560 L0 373.22Q87.77 341, 120 428.77Q161.09 349.86, 240 390.95Q287.9 318.85, 360 366.74Q413.42 348.16, 432 401.58Q484.17 381.75, 504 433.92Q557.34 367.26, 624 420.6Q647.69 372.29, 696 395.98Q711.14 339.13, 768 354.27Q839.68 305.95, 888 377.64Q931.77 349.41, 960 393.19Q1019.38 380.56, 1032 439.94Q1059.92 395.86, 1104 423.78Q1122.49 370.27, 1176 388.76Q1222.13 314.88, 1296 361.01Q1356.37 349.38, 1368 409.75Q1417.32 387.07, 1440 436.39Q1505.1 381.49, 1560 446.58z" fill="rgba(193, 193, 193, 1)"></path><path d="M1488 560L0 560 L0 443.46Q72.54 396, 120 468.53Q165.24 441.76, 192 487Q231.93 406.93, 312 446.86Q353.3 416.16, 384 457.46Q453.18 406.64, 504 475.82Q513.4 413.22, 576 422.61Q617.48 392.09, 648 433.57Q710.66 424.24, 720 486.9Q787.51 434.41, 840 501.93Q851.84 441.76, 912 453.6Q988.97 410.57, 1032 487.54Q1060.94 396.48, 1152 425.42Q1194.99 396.42, 1224 439.41Q1290.44 433.86, 1296 500.3Q1323.24 455.54, 1368 482.78Q1445.14 439.92, 1488 517.06z" fill="rgba(215, 215, 215, 1)"></path><path d="M1536 560L0 560 L0 585.91Q-0.97 512.94, 72 511.98Q101.61 469.59, 144 499.2Q216.1 451.3, 264 523.41Q342.42 481.83, 384 560.25Q410.44 514.69, 456 541.14Q502.05 467.19, 576 513.25Q655.57 472.82, 696 552.38Q718.62 503, 768 525.61Q813.88 451.49, 888 497.36Q955.17 444.53, 1008 511.7Q1074.94 506.64, 1080 573.59Q1107.99 529.58, 1152 557.57Q1160.82 494.39, 1224 503.21Q1297.61 456.81, 1344 530.42Q1408.57 522.98, 1416 587.55Q1429.17 480.72, 1536 493.89z" fill="rgba(241, 241, 241, 1)"></path></g><defs><mask id="SvgjsMask1002"><rect width="1440" height="560" fill="#ffffff"></rect></mask></defs></svg>