<svg xmlns="http://www.w3.org/2000/svg" version="1.1" xmlns:xlink="http://www.w3.org/1999/xlink" xmlns:svgjs="http://svgjs.dev/svgjs" width="1440" height="560" preserveAspectRatio="none" viewBox="0 0 1440 560"><g mask="url(&quot;#SvgjsMask1080&quot;)" fill="none"><rect width="1440" height="560" x="0" y="0" fill="rgba(112, 237, 255, 1)"></rect><path d="M1488 560L0 560 L0 238.13Q63.31 181.44, 120 244.74Q202.79 255.53, 192 338.32Q172.95 247.27, 264 228.23Q348.05 192.28, 384 276.34Q456.73 229.07, 504 301.8Q520.35 246.15, 576 262.5Q641.74 208.24, 696 273.98Q744.31 202.29, 816 250.59Q902.71 217.3, 936 304Q985.51 233.51, 1056 283.03Q1063.85 218.88, 1128 226.73Q1195.33 174.06, 1248 241.38Q1330.42 203.8, 1368 286.22Q1419.18 217.4, 1488 268.58z" fill="rgba(149, 236, 255, 1)"></path><path d="M1560 560L0 560 L0 346.71Q65.37 292.08, 120 357.45Q168.62 334.07, 192 382.69Q210.32 329.01, 264 347.34Q309.98 321.32, 336 367.3Q421.47 332.77, 456 418.24Q472.39 314.63, 576 331.03Q602.64 285.67, 648 312.31Q699.32 291.63, 720 342.94Q797.55 300.49, 840 378.03Q842.42 308.45, 912 310.87Q985.34 264.21, 1032 337.55Q1134.71 320.26, 1152 422.97Q1167.95 366.92, 1224 382.87Q1253.3 340.17, 1296 369.47Q1305.47 306.95, 1368 316.42Q1409.05 285.47, 1440 326.52Q1510.9 277.42, 1560 348.32z" fill="rgba(164, 239, 255, 1)"></path><path d="M1488 560L0 560 L0 408.39Q71.85 360.24, 120 432.09Q176.45 416.54, 192 472.99Q196.9 405.89, 264 410.79Q315.68 342.47, 384 394.14Q439.6 377.74, 456 433.33Q527.34 384.67, 576 456.02Q612.35 372.37, 696 408.72Q750.45 391.18, 768 445.63Q803.63 361.26, 888 396.89Q942.21 379.1, 960 433.3Q1022.57 423.87, 1032 486.44Q1052.5 434.94, 1104 455.43Q1148.26 427.69, 1176 471.95Q1198 373.95, 1296 395.96Q1371.14 351.11, 1416 426.25Q1460.43 398.69, 1488 443.12z" fill="rgba(199, 244, 255, 1)"></path><path d="M1464 560L0 560 L0 504.26Q92.78 477.04, 120 569.82Q134.97 512.79, 192 527.75Q233.5 497.25, 264 538.75Q337.71 492.46, 384 566.18Q393.44 503.62, 456 513.06Q485.68 470.74, 528 500.41Q580.36 432.77, 648 485.13Q714.75 479.88, 720 546.63Q785.22 491.85, 840 557.07Q907.45 504.52, 960 571.96Q974.63 514.59, 1032 529.21Q1104.39 481.6, 1152 553.99Q1221.18 503.17, 1272 572.35Q1313.63 541.99, 1344 583.62Q1383 502.62, 1464 541.62z" fill="white"></path></g><defs><mask id="SvgjsMask1080"><rect width="1440" height="560" fill="#ffffff"></rect></mask></defs></svg>