<?xml version="1.0" encoding="UTF-8" standalone="no"?>
<svg
   version="1.1"
   viewBox="0.7899999022483826 1.840000033378601 469.9100036621094 436.9706115722656"
   width="472.00"
   height="439.00"
   id="svg13"
   sodipodi:docname="api-weather-logo.svg"
   inkscape:version="1.3.2 (091e20e, 2023-11-25)"
   xmlns:inkscape="http://www.inkscape.org/namespaces/inkscape"
   xmlns:sodipodi="http://sodipodi.sourceforge.net/DTD/sodipodi-0.dtd"
   xmlns="http://www.w3.org/2000/svg"
   xmlns:svg="http://www.w3.org/2000/svg">
  <defs
     id="defs13" />
  <sodipodi:namedview
     id="namedview13"
     pagecolor="#ffffff"
     bordercolor="#000000"
     borderopacity="0.25"
     inkscape:showpageshadow="2"
     inkscape:pageopacity="0.0"
     inkscape:pagecheckerboard="0"
     inkscape:deskcolor="#d1d1d1"
     inkscape:zoom="0.53758542"
     inkscape:cx="236.24153"
     inkscape:cy="218.56992"
     inkscape:window-width="1312"
     inkscape:window-height="744"
     inkscape:window-x="0"
     inkscape:window-y="38"
     inkscape:window-maximized="0"
     inkscape:current-layer="svg13" />
  <g
     id="g13"
     transform="translate(66.669582)">
    <path
       fill="#134962"
       d="m 180.90421,47.013593 q 21.45155,2.084274 40.58963,11.961297 a 0.93828138,0.94544384 28.6 0 1 0.37961,1.310729 l -2.82201,4.884793 a 0.99558101,0.99558101 0 0 1 -1.28924,0.401097 q -20.678,-9.776748 -44.40005,-10.822467 a 1.0385557,1.0385557 0 0 1 -0.99558,-1.038555 V 2.4702959 Q 172.36657,1.84 172.99686,1.84 h 6.37459 q 0.91679,0 0.91679,0.916794 V 46.33316 a 0.68759552,0.68043306 3 0 0 0.61597,0.680433 z"
       id="path1"
       style="stroke-width:0.716245" />
    <rect
       fill="#134962"
       x="230.83902"
       y="-97.764206"
       transform="rotate(28.3)"
       width="7.9216738"
       height="52.443485"
       rx="0.8666569"
       id="rect1"
       style="stroke-width:0.716245" />
    <path
       fill="#134962"
       d="m 112.95402,58.530818 q 0.48705,0.458397 1.24627,0.09311 12.62024,-6.123898 27.07407,-9.31119 7.92167,-1.747638 14.74033,-2.048461 a 1.0958554,1.0958554 0 0 0 1.05288,-1.095856 V 30.260615 a 0.8594944,0.8594944 0 0 1 0.85949,-0.859495 h 6.76852 a 0.57299626,0.58015872 0 0 1 0.573,0.580159 v 23.929756 q 0,0.945444 -0.93828,0.966932 c -24.00138,0.580158 -47.79505,8.451695 -66.403108,23.585958 -2.635783,2.141574 -5.228591,4.132736 -7.456114,6.238497 Q 78.660192,95.8472 70.172685,109.69938 a 1.310729,1.310729 0 0 1 -1.776288,0.45124 L 23.079555,83.986177 a 0.69475797,0.69475797 0 0 1 -0.257849,-0.945444 l 3.015393,-5.221428 a 1.2247795,1.2176171 30 0 1 1.668852,-0.444073 l 38.003977,21.945757 a 1.5829022,1.5900646 32.3 0 0 2.091436,-0.472722 Q 79.233188,81.973527 95.706831,69.818844 c 2.900794,-2.141573 6.890279,-4.52667 9.791069,-6.403233 a 0.5515089,0.5515089 0 0 0 0.17907,-0.73057 L 90.685951,35.145408 q -0.544346,-1.002744 0.501372,-1.453978 l 5.844562,-2.528346 q 0.43691,-0.193386 0.666108,0.222036 l 15.134267,26.988124 a 0.80219477,0.74489514 9.3 0 0 0.12176,0.157574 z"
       id="path2"
       style="stroke-width:0.716245" />
    <path
       fill="#134962"
       d="m 170.14621,123.93834 q -0.93828,-1.36803 -1.9267,-0.043 l -1.68318,2.27049 q -0.90963,1.23195 -0.10744,2.53551 1.96252,3.17297 2.14874,5.38617 0.47989,5.79442 0.61597,6.46769 c 0.35096,1.74048 -0.72341,3.65285 -1.4683,4.72006 q -6.92609,9.94865 -13.49406,19.75405 a 1.769126,1.7548011 16.9 0 1 -1.46114,0.77354 q -17.18273,-0.0286 -90.741124,-0.0573 -1.661689,0 -1.511278,-1.78345 1.453978,-17.18273 7.277053,-32.85417 C 73.789724,114.96379 84.554891,99.485726 97.490282,88.290811 Q 126.10428,63.53021 163.34904,61.918658 c 12.45551,-0.544346 25.09007,0.916794 37.09435,4.748707 q 23.76502,7.585038 42.767,24.459778 3.26608,2.900793 9.49742,10.392717 c 14.92655,17.93479 23.37824,40.13123 23.92975,63.57394 a 0.83084458,0.83084458 0 0 1 -0.83084,0.85233 h -6.18836 a 0.79503232,0.79503232 0 0 1 -0.79503,-0.75922 C 267.50544,133.30683 250.688,104.59972 224.25854,87.116169 q -3.6815,-2.428072 -8.63792,-4.870468 a 0.63745834,0.63745834 0 0 0 -0.8953,0.75922 q 0.43691,1.396678 0.57299,2.592808 c 0.54435,4.763031 7.60653,4.369096 5.78727,10.442857 q -0.60881,2.026974 -1.83359,3.7961 -0.20771,0.300824 -0.55151,0.408264 -1.31789,0.40109 -2.57848,-0.286502 -4.39059,-2.413747 -8.65941,-4.498021 c -2.12009,-1.038556 -4.39058,-2.771869 -6.33161,-3.301891 q -6.63959,-1.797776 -10.52881,4.383421 -4.18287,6.661083 -6.63243,11.445603 -0.80219,1.55425 -3.67434,4.48369 -0.25784,0.26501 -0.30798,0.62314 c -0.41542,2.82917 0.30082,4.69857 1.95535,7.1338 q 1.33222,1.96251 1.54709,2.83633 c 0.59448,2.40659 -0.78787,5.35752 -2.43524,7.10516 -3.17296,3.36635 -7.14812,-0.30799 -8.93874,-3.18013 q -1.10301,-1.76913 -1.96967,-3.05121 z m -66.04498,-10.20649 c -3.93935,-0.007 -2.00549,-4.90629 -0.88815,-6.84015 2.79336,-4.84182 7.45612,-9.117801 11.76075,-12.383879 3.76029,-2.850657 11.42411,-3.466628 13.74475,1.8121 a 0.93828138,0.94544384 65.1 0 0 1.27492,0.46556 c 4.11124,-2.005487 8.41588,-4.720057 10.67921,-8.745356 q 0.73057,-1.303566 1.51128,-4.17571 c 0.79503,-2.943768 1.13167,-6.052273 3.49528,-7.019204 3.3377,-1.368029 5.87321,-0.429747 9.38997,0.587321 1.83359,0.537184 4.56249,2.077112 4.22585,4.082598 -0.61597,3.595552 -4.32612,8.279796 -6.99055,10.729356 q -7.77843,7.162453 -13.68745,12.104544 -2.52835,2.11293 -1.44682,6.2958 a 0.68043306,0.68759552 88.5 0 0 0.52286,0.49421 q 2.70741,0.56583 4.61978,-1.15316 6.6969,-6.02362 9.6335,-8.21533 8.9674,-6.696895 17.72708,-9.991624 1.8121,-0.680433 1.86223,-2.213198 0.35813,-9.762424 -5.59387,-18.249931 c -1.12451,-1.60439 -5.28589,-1.045718 -7.41314,-0.866657 -15.9866,1.346541 -30.51921,6.589457 -43.92016,14.998177 C 93.722832,98.561769 78.918041,119.82709 72.235472,143.45603 q -1.074368,3.78177 -2.463884,12.77781 -0.222036,1.45398 1.031393,0.69476 l 4.569645,-2.77187 a 4.3619341,4.3332842 77.3 0 0 2.069949,-3.29473 c 0.687596,-7.04069 5.758613,-9.77675 11.416951,-13.2004 2.213198,-1.33938 4.634107,-4.08976 6.790005,-5.379 q 3.44514,-2.05562 10.020269,-3.70299 c 3.63853,-0.90963 8.32277,-0.21487 11.94698,-1.55425 1.984,-0.73773 6.15971,-3.09418 6.07376,-5.45063 q -0.48705,-13.29351 -0.39394,-15.22737 0.0716,-1.50412 -0.58732,-2.79336 a 1.0958554,1.1030178 60.9 0 0 -1.54709,-0.43691 q -2.97958,1.81926 -6.54648,5.42198 c -3.5669,3.60271 -5.74429,5.19994 -10.51448,5.19278 z"
       id="path3"
       style="stroke-width:0.716245" />
    <path
       fill="#134962"
       d="m 280.16149,114.74175 q -0.65178,0.3438 -0.3438,1.00274 2.79336,6.05228 5.01372,11.68913 c 3.75313,9.5189 5.67266,19.33146 6.68257,29.48066 a 0.9812561,0.9812561 0 0 0 0.97409,0.88098 h 16.37337 a 0.69475797,0.68759552 0 0 1 0.69476,0.68759 v 6.32445 a 1.0313933,1.0242308 0 0 1 -1.03139,1.02423 h -23.75786 a 0.78070741,0.77354496 89.5 0 1 -0.77355,-0.76638 q -0.40826,-23.56447 -10.91558,-44.7152 -3.2231,-6.49634 -3.95367,-7.92167 a 0.69475797,0.68759552 62.8 0 1 0.29366,-0.93112 l 39.21443,-20.498941 a 0.85233194,0.8594944 62.5 0 1 1.15316,0.358122 l 2.8793,5.515089 a 0.77354496,0.78070741 62.1 0 1 -0.32947,1.052881 z"
       id="path4"
       style="stroke-width:0.716245" />
    <path
       fill="#134962"
       d="m 45.096936,157.71647 q 0.544347,0 0.594484,-0.53718 1.9267,-19.53201 9.826886,-36.87947 1.955349,-4.29031 3.280403,-6.31013 a 0.68043306,0.68043306 0 0 1 0.909632,-0.22203 l 5.149804,2.97242 q 0.78787,0.45839 0.37961,1.26775 -11.166265,22.38983 -11.88251,47.1934 -0.01432,0.46556 -0.472722,0.46556 H 1.6709818 A 0.88098176,0.88098176 0 0 1 0.79,164.78581 v -6.21701 a 0.85233194,0.85233194 0 0 1 0.8523319,-0.85233 z"
       id="path5"
       style="stroke-width:0.716245" />
    <path
       fill="#134962"
       d="m 193.27377,113.98969 c 2.87214,0.66611 7.06218,2.46389 6.52499,6.02363 q -0.27933,1.83358 -2.23468,2.6501 c -1.94103,0.81652 -5.1498,1.57574 -5.8374,-1.18896 q -0.78071,-3.13716 -0.0143,-6.49635 a 1.296404,1.3035665 12.8 0 1 1.56141,-0.98842 z"
       id="path6"
       style="stroke-width:0.716245" />
    <path
       fill="#134962"
       d="m 220.01121,150.75457 c -5.26441,0.98842 -11.32384,-7.74978 -8.78833,-12.21199 q 0.17906,-0.32231 0.53718,-0.43691 c 2.0986,-0.65178 5.4363,0.63746 7.51342,1.52561 3.28756,1.411 5.44346,5.61536 3.59555,8.9459 q -1.00991,1.82643 -2.85782,2.17739 z"
       id="path7"
       style="stroke-width:0.716245" />
    <path
       fill="#134962"
       d="m 187.25015,162.20733 c -1.53277,-0.78071 -4.38342,-0.47272 -6.55365,-0.47989 -3.81042,-0.007 -6.91893,-1.15315 -8.64508,-4.74154 -0.68759,-1.43965 -0.3438,-2.71457 0,-4.61978 q 0.8022,-4.41207 4.33329,-7.03353 c 4.71289,-3.50244 13.15026,-6.87596 18.74414,-3.65285 2.39225,1.37519 5.33602,5.0925 7.54206,7.19826 3.55974,3.40217 9.46876,4.16855 13.58001,7.52058 2.34928,1.9267 2.01265,5.47211 1.59006,8.07208 a 1.2677542,1.2677542 0 0 1 -1.24626,1.06721 q -11.43844,0.10744 -21.90995,-0.0143 c -3.12283,-0.0358 -4.94209,-2.0413 -7.43462,-3.31622 z"
       id="path8"
       style="stroke-width:0.716245" />
    <path
       fill="#134962"
       d="m 161.65154,275.61761 c -20.66368,-1.11734 -41.49926,-9.03185 -57.93709,-20.678 Q 95.234109,248.93031 86.581866,238.78112 62.652109,210.72579 60.646622,173.74604 a 1.2247795,1.2247795 0 0 1 1.22478,-1.28924 H 275.5632 a 1.0242308,1.0170684 1.5 0 1 1.02423,1.07437 q -1.16748,20.78544 -10.00595,39.85905 c -11.23789,24.25923 -31.2283,42.76701 -55.6451,53.4892 q -23.11324,10.1492 -49.28484,8.73819 z m 71.50993,-83.0558 c -0.0716,-1.86224 3.39501,-3.98949 4.78452,-4.63411 q 4.72722,-2.18455 7.66383,-5.99497 a 0.83800704,0.83800704 0 0 0 -0.65895,-1.35371 h -94.93116 a 1.0170684,1.0170684 0 0 0 -1.01706,0.94545 q -0.62314,8.3156 1.31073,16.67419 0.84516,3.63852 4.44072,8.07208 c 2.90079,3.58123 5.19277,5.7801 9.76242,3.8534 q 5.67266,-2.37793 7.11948,-2.92944 4.51951,-1.71899 8.8313,1.86224 3.34487,2.77903 6.04511,6.13106 c 2.70025,3.35202 0.43691,8.63791 2.42091,11.49573 2.01265,2.88647 4.20436,5.54374 2.95093,8.90293 -1.17464,3.15865 -3.15148,5.87322 -3.05836,8.55914 0.17906,5.0925 0.45839,9.5762 5.8947,11.72493 q 5.39332,2.12725 9.73377,-0.80936 c 2.19171,-1.48262 3.98949,-4.82033 5.88754,-6.28863 q 5.24291,-4.04679 10.31393,-9.51174 c 2.75038,-2.96525 4.30463,-4.04678 7.80707,-5.84456 a 1.7834509,1.7834509 0 0 0 0.78071,-2.37077 c -2.22036,-4.46937 -4.28315,-8.63792 -1.86224,-13.73759 1.86224,-3.91786 7.6495,-8.58062 11.12329,-10.82963 3.58123,-2.32063 3.87489,-5.45779 4.46221,-9.16794 a 0.78070741,0.78070741 0 0 0 -1.09585,-0.83084 c -2.82917,1.30356 -5.51509,2.45672 -7.74978,-0.77355 q -0.89531,-1.28208 -0.95977,-3.14431 z M 76.361045,187.27592 c -1.840751,-0.6876 -2.263336,-3.05121 -2.120086,-4.66276 a 1.1173427,1.1101803 9.6 0 0 -0.84517,-1.18897 l -2.950931,-0.73057 q -0.938281,-0.2292 -0.823682,0.73057 c 3.051205,25.44104 16.14417,48.55427 36.242014,64.36897 a 1.4611405,1.4611405 0 0 0 1.91237,-0.0931 q 3.30906,-3.18013 4.97791,-7.47044 c 0.93828,-2.40659 1.2964,-6.02362 2.37077,-8.98172 1.20329,-3.30189 3.76745,-4.85614 4.26882,-8.12222 q 0.59449,-3.82475 -1.81926,-5.82307 c -1.72615,-1.42533 -6.70406,-3.98949 -9.1178,-4.46938 q -2.26334,-0.45123 -5.80159,-0.26501 c -5.328864,0.27934 -6.295796,-4.10408 -7.491925,-8.12222 -0.895307,-3.01539 -2.256173,-5.24291 -4.505183,-6.76135 q -5.51509,-3.72448 -7.771262,-5.28589 -2.184549,-1.51128 -6.524995,-3.12283 z"
       id="path9"
       style="stroke-width:0.716245" />
    <path
       fill="#134962"
       d="m 291.82913,180.62916 q -0.65895,0 -0.72341,0.65894 -2.03414,22.38983 -12.59876,42.1582 a 0.79503232,0.80219477 23 0 1 -0.9526,0.38678 q -2.91512,-0.93112 -5.73713,-3.02256 -0.29366,-0.21487 -0.19338,-0.56583 0.38677,-1.38952 0.58732,-1.79061 9.94865,-19.83284 11.45276,-41.664 0.12176,-1.76196 0.39394,-3.36635 0.15041,-0.86666 1.03139,-0.86666 h 51.51236 a 0.75922005,0.75922005 0 0 1 0.75922,0.75922 v 6.56081 q 0,0.75206 -0.74489,0.75206 z"
       id="path10"
       style="stroke-width:0.716245" />
    <path
       fill="#134962"
       d="m 63.561741,233.78173 a 0.72340778,0.70192042 41.5 0 0 -0.608809,0.0286 l -26.343503,14.3464 q -0.909632,0.49421 -1.403841,-0.41542 l -3.044043,-5.57955 q -0.307985,-0.56584 0.257849,-0.87382 l 26.193091,-14.26045 a 1.0815304,1.0886929 61.7 0 0 0.444073,-1.46114 C 51.843967,211.95057 47.195535,197.58269 45.906293,181.94705 a 1.1316676,1.1245052 87.6 0 0 -1.124505,-1.03856 H 31.4453 a 1.0672055,1.0672055 0 0 1 -1.067205,-1.0672 v -6.20269 a 1.0313933,1.0313933 0 0 1 1.031393,-1.03139 h 21.308298 q 0.637459,0 0.658946,0.64462 c 0.601646,18.90888 5.386165,36.62879 15.241701,52.93769 q 6.747031,11.16627 16.194307,21.09343 a 1.0385557,1.0385557 0 0 1 -0.01432,1.44682 l -4.211523,4.20436 a 0.92395648,0.92395648 0 0 1 -1.332216,-0.0215 q -8.079247,-8.77401 -14.726004,-18.30723 -0.422585,-0.60165 -0.966931,-0.82368 z"
       id="path11"
       style="stroke-width:0.716245" />
    <path
       fill="#134962"
       d="m 234.66559,272.25126 12.9712,22.42564 a 0.89530666,0.89530666 0 0 1 -0.30799,1.21762 l -4.92776,2.99391 a 1.2749167,1.2749167 0 0 1 -1.74764,-0.42975 l -12.86377,-21.20086 q -0.70192,-1.15316 -1.91237,-0.56584 -0.9741,0.46556 -7.22692,3.45947 -15.05547,7.19826 -31.7225,9.68363 c -4.15423,0.61598 -9.50458,0.89531 -13.4296,1.25343 a 1.0457182,1.0385557 87.5 0 1 -1.13167,-1.03855 v -5.8374 q 0,-1.43249 1.42533,-1.49695 26.7446,-1.15316 49.85067,-13.99544 c 17.36895,-9.64782 32.96877,-23.72921 43.44028,-40.86896 q 0.56583,-0.93112 1.51128,-0.38677 l 43.6265,25.19035 q 0.90247,0.5157 0.37961,1.41817 l -2.84349,4.9206 a 0.94544384,0.94544384 0 0 1 -1.14599,0.42259 q -1.93387,-0.6876 -3.96084,-1.87657 -17.03232,-10.04176 -33.41285,-19.00199 a 1.7404762,1.7404762 0 0 0 -2.34212,0.65179 q -1.6402,2.822 -3.38784,4.95642 -10.12055,12.33374 -23.19202,22.089 -4.99939,3.73164 -6.23134,4.68425 -0.85949,0.6661 -1.09585,0.74489 -0.55867,0.18622 -0.32231,0.58732 z"
       id="path12"
       style="stroke-width:0.716245" />
    <rect
       fill="#134962"
       x="216.08609"
       y="190.91768"
       transform="rotate(26.4)"
       width="7.9073486"
       height="49.363628"
       rx="1.3537036"
       id="rect12"
       style="stroke-width:0.716245" />
    <path
       fill="#134962"
       d="m 163.99366,312.05301 h -6.03795 a 0.9812561,0.9812561 0 0 1 -0.98125,-0.98125 v -27.38922 a 0.9812561,0.9812561 0 0 1 0.98125,-0.98126 h 6.03795 a 0.9812561,0.9812561 0 0 1 0.98126,0.98126 v 27.38922 a 0.9812561,0.9812561 0 0 1 -0.98126,0.98125 z"
       id="path13"
       style="stroke-width:0.716245" />
  </g>
  <text
     xml:space="preserve"
     style="font-style:normal;font-variant:normal;font-weight:normal;font-stretch:normal;font-size:62.0987px;font-family:'DIN Alternate';-inkscape-font-specification:'DIN Alternate, Normal';font-variant-ligatures:normal;font-variant-caps:normal;font-variant-numeric:normal;font-variant-east-asian:normal;fill:#004455;fill-opacity:0.696262;stroke-width:46.3779;stroke-linecap:round;stroke-linejoin:round"
     x="23.500011"
     y="309.48428"
     id="text14"
     transform="scale(0.76576368,1.3058859)"><tspan
       sodipodi:role="line"
       id="tspan14"
       style="font-style:normal;font-variant:normal;font-weight:normal;font-stretch:normal;font-size:62.0987px;font-family:'DIN Alternate';-inkscape-font-specification:'DIN Alternate, Normal';font-variant-ligatures:normal;font-variant-caps:normal;font-variant-numeric:normal;font-variant-east-asian:normal;fill:#004455;stroke-width:46.3779"
       x="23.500011"
       y="309.48428">API Powered Weather</tspan></text>
</svg>
