<?xml version="1.0" encoding="UTF-8" standalone="no"?>
<svg
   version="1.1"
   width="1024px"
   height="1024px"
   style="shape-rendering:geometricPrecision; text-rendering:geometricPrecision; image-rendering:optimizeQuality; fill-rule:evenodd; clip-rule:evenodd"
   id="svg15"
   sodipodi:docname="barbell-icon-black.svg"
   inkscape:version="1.3.2 (091e20e, 2023-11-25)"
   xmlns:inkscape="http://www.inkscape.org/namespaces/inkscape"
   xmlns:sodipodi="http://sodipodi.sourceforge.net/DTD/sodipodi-0.dtd"
   xmlns="http://www.w3.org/2000/svg"
   xmlns:svg="http://www.w3.org/2000/svg">
  <defs
     id="defs15" />
  <sodipodi:namedview
     id="namedview15"
     pagecolor="#ffffff"
     bordercolor="#000000"
     borderopacity="0.25"
     inkscape:showpageshadow="2"
     inkscape:pageopacity="0.0"
     inkscape:pagecheckerboard="0"
     inkscape:deskcolor="#d1d1d1"
     inkscape:zoom="0.4609375"
     inkscape:cx="514.16949"
     inkscape:cy="424.13559"
     inkscape:window-width="1336"
     inkscape:window-height="968"
     inkscape:window-x="59"
     inkscape:window-y="38"
     inkscape:window-maximized="0"
     inkscape:current-layer="svg15" />
  <g
     id="g4"
     transform="rotate(29.16064,502.86203,521.52487)"
     style="fill:#1a1a1a">
    <path
       style="opacity:1;fill:#1a1a1a"
       fill="#14161a"
       d="m 670.5,272.5 c 36.326,65.328 73.659,129.995 112,194 16.303,29.937 33.137,59.603 50.5,89 5.168,8.488 4.335,16.321 -2.5,23.5 -9.769,5.634 -19.602,11.134 -29.5,16.5 -4.15,-4.956 -7.817,-10.289 -11,-16 -66.821,-119.651 -134.655,-238.651 -203.5,-357 9.788,-5.773 19.788,-11.273 30,-16.5 8.761,-1.639 15.595,1.194 20.5,8.5 10.941,19.56 22.108,38.893 33.5,58 z"
       id="path4" />
  </g>
  <g
     id="g5"
     transform="rotate(29.16064,502.86203,521.52487)"
     style="fill:#1a1a1a">
    <path
       style="opacity:1;fill:#1a1a1a"
       fill="#16171b"
       d="m 571.5,229.5 c 1.89,-0.203 3.39,0.463 4.5,2 70.4,122.743 140.4,245.743 210,369 0.684,1.284 0.517,2.451 -0.5,3.5 -9.333,5.333 -18.667,10.667 -28,16 -10.162,3.502 -17.996,0.669 -23.5,-8.5 -64.493,-115.657 -129.493,-230.991 -195,-346 -1.301,-6.422 -0.301,-12.422 3,-18 9.814,-6.151 19.647,-12.151 29.5,-18 z"
       id="path5" />
  </g>
  <g
     id="g6"
     transform="rotate(29.16064,502.86203,521.52487)"
     style="fill:#1a1a1a">
    <path
       style="opacity:1;fill:#1a1a1a"
       fill="#14161a"
       d="m 789.5,453.5 c -1.214,-3.43 -2.714,-6.764 -4.5,-10 -33,-56.667 -66,-113.333 -99,-170 -2.481,-4.51 -2.981,-9.177 -1.5,-14 6.255,-5.473 13.255,-9.973 21,-13.5 5.822,-1.503 10.655,-0.003 14.5,4.5 40.838,69.006 81.172,138.339 121,208 5.377,8.603 4.544,16.436 -2.5,23.5 -6.389,3.7 -13.056,6.534 -20,8.5 -4.929,-0.409 -8.762,-2.742 -11.5,-7 -5.608,-10.227 -11.441,-20.227 -17.5,-30 z"
       id="path6" />
  </g>
  <g
     id="g7"
     transform="rotate(29.16064,502.86203,521.52487)"
     style="fill:#1a1a1a">
    <path
       style="opacity:1;fill:#1a1a1a"
       fill="#15161a"
       d="m 761.5,268.5 c 4.626,-0.8 8.46,0.534 11.5,4 10.293,17.084 20.459,34.251 30.5,51.5 7.644,-3.319 15.311,-6.985 23,-11 5.004,-1.225 8.837,0.275 11.5,4.5 4.922,8.843 9.588,17.843 14,27 1.013,4.244 0.18,8.077 -2.5,11.5 -6.175,3.588 -12.509,6.922 -19,10 -0.857,0.689 -1.523,1.522 -2,2.5 8.5,15.667 17,31.333 25.5,47 1.297,9.718 -3.037,15.051 -13,16 -2.406,-0.203 -4.406,-1.203 -6,-3 -27.667,-48 -55.333,-96 -83,-144 -1.885,-2.414 -2.552,-5.081 -2,-8 3.464,-3.305 7.297,-5.972 11.5,-8 z"
       id="path7" />
  </g>
  <g
     id="g9"
     transform="rotate(29.16064,502.86203,521.52487)"
     style="fill:#1a1a1a">
    <path
       style="opacity:1;fill:#1a1a1a"
       fill="#15161a"
       d="m 249.5,416.5 c 8.81,-0.571 15.643,2.762 20.5,10 66.161,116.992 132.828,233.659 200,350 2.173,9.855 -0.994,17.355 -9.5,22.5 -9.318,4.325 -18.318,9.158 -27,14.5 -71.08,-126.495 -142.413,-252.829 -214,-379 9.696,-6.514 19.696,-12.514 30,-18 z"
       id="path9" />
  </g>
  <g
     id="g10"
     transform="rotate(29.16064,502.86203,521.52487)"
     style="fill:#1a1a1a">
    <path
       style="opacity:1;fill:#1a1a1a"
       fill="#15161b"
       d="m 610.5,419.5 c 1.478,-0.262 2.811,0.071 4,1 10.667,18.667 21.333,37.333 32,56 -0.209,0.586 -0.543,1.086 -1,1.5 -83.838,47.753 -167.838,95.253 -252,142.5 -0.586,-0.209 -1.086,-0.543 -1.5,-1 -10.161,-18.992 -20.828,-37.659 -32,-56 -0.749,-1.135 -0.583,-2.135 0.5,-3 83.396,-47.027 166.729,-94.027 250,-141 z"
       id="path10" />
  </g>
  <g
     id="g12"
     transform="rotate(29.16064,502.86203,521.52487)"
     style="fill:#1a1a1a">
    <path
       style="opacity:1;fill:#1a1a1a"
       fill="#15161a"
       d="m 203.5,440.5 c 1.517,0.011 2.684,0.677 3.5,2 71.673,125.342 142.84,251.009 213.5,377 -9.299,6.322 -18.965,12.155 -29,17.5 -4,0.667 -8,0.667 -12,0 -3.696,-2.203 -6.862,-5.037 -9.5,-8.5 -65.933,-117.59 -132.266,-234.923 -199,-352 -1.402,-6.818 -0.402,-13.152 3,-19 9.814,-5.82 19.648,-11.487 29.5,-17 z"
       id="path12" />
  </g>
  <g
     id="g14"
     transform="rotate(29.16064,502.86203,521.52487)"
     style="fill:#1a1a1a">
    <path
       style="opacity:1;fill:#1a1a1a"
       fill="#15161a"
       d="m 183.5,544.5 c 5.501,-0.86 10.334,0.473 14.5,4 41.161,73.658 82.827,146.992 125,220 3.728,8.709 1.228,14.875 -7.5,18.5 -5.8,3.486 -11.966,5.986 -18.5,7.5 -4,-0.333 -7.333,-2 -10,-5 -40,-70 -80,-140 -120,-210 -3.628,-5.876 -4.961,-12.209 -4,-19 0.883,-2.602 2.383,-4.769 4.5,-6.5 5.232,-3.445 10.565,-6.611 16,-9.5 z"
       id="path14" />
  </g>
  <g
     id="g15"
     transform="rotate(29.16064,502.86203,521.52487)"
     style="fill:#1a1a1a">
    <path
       style="opacity:1;fill:#1a1a1a"
       fill="#15161b"
       d="m 167.5,605.5 c 1.89,-0.203 3.39,0.463 4.5,2 27.586,47.504 54.919,95.17 82,143 3.03,3.887 4.03,8.22 3,13 -4.365,3.265 -9.198,5.599 -14.5,7 -2.714,-0.44 -4.88,-1.774 -6.5,-4 -9.456,-16.748 -19.289,-33.248 -29.5,-49.5 -1,-0.667 -2,-0.667 -3,0 -5.188,3.769 -10.855,6.103 -17,7 -6.959,-11.417 -13.793,-22.917 -20.5,-34.5 -1.885,-2.414 -2.552,-5.081 -2,-8 5.413,-3.957 10.913,-7.79 16.5,-11.5 -8.374,-14.582 -16.874,-29.082 -25.5,-43.5 -1.658,-2.809 -2.825,-5.809 -3.5,-9 0.029,-1.529 0.696,-2.696 2,-3.5 4.564,-3.11 9.231,-5.944 14,-8.5 z"
       id="path15" />
  </g>
</svg>
