<?xml version="1.0" encoding="UTF-8" standalone="no"?>
<svg
   version="1.1"
   width="633px"
   height="633px"
   style="shape-rendering:geometricPrecision; text-rendering:geometricPrecision; image-rendering:optimizeQuality; fill-rule:evenodd; clip-rule:evenodd"
   id="svg5"
   sodipodi:docname="game-site-logo.svg"
   inkscape:version="1.3.2 (091e20e, 2023-11-25)"
   xmlns:inkscape="http://www.inkscape.org/namespaces/inkscape"
   xmlns:sodipodi="http://sodipodi.sourceforge.net/DTD/sodipodi-0.dtd"
   xmlns="http://www.w3.org/2000/svg"
   xmlns:svg="http://www.w3.org/2000/svg">
  <defs
     id="defs5" />
  <sodipodi:namedview
     id="namedview5"
     pagecolor="#ffffff"
     bordercolor="#000000"
     borderopacity="0.25"
     inkscape:showpageshadow="2"
     inkscape:pageopacity="0.0"
     inkscape:pagecheckerboard="0"
     inkscape:deskcolor="#d1d1d1"
     inkscape:zoom="2.9826224"
     inkscape:cx="507.27172"
     inkscape:cy="22.128178"
     inkscape:window-width="1312"
     inkscape:window-height="449"
     inkscape:window-x="0"
     inkscape:window-y="38"
     inkscape:window-maximized="0"
     inkscape:current-layer="svg5" />
  <g
     id="g1">
    <path
       style="opacity:0.9"
       fill="#a4402e"
       d="m 569.5,617.5 c -0.333,-1.333 -0.667,-1.333 -1,0 -1.586,0.913 -3.086,0.913 -4.5,0 -0.333,0.667 -0.667,1.333 -1,2 -2.624,0.03 -5.291,-0.303 -8,-1 -1,0.667 -2,1.333 -3,2 -1.907,0.079 -3.907,-0.254 -6,-1 -1.333,0.667 -2.667,1.333 -4,2 -14.888,-0.031 -29.721,-0.031 -44.5,0 -42.256,-2.194 -84.422,-3.861 -126.5,-5 -43.354,0.165 -86.354,0.165 -129,0 -7.667,0.667 -15.333,1.333 -23,2 -5.031,-0.397 -10.031,-0.73 -15,-1 -1.667,0.667 -3.333,1.333 -5,2 -4.28,-0.013 -8.28,-0.346 -12,-1 -2.333,0.667 -4.667,1.333 -7,2 -3.559,0.272 -6.893,-0.061 -10,-1 -1.333,0.667 -2.667,1.333 -4,2 h -20 c -1.785,0.74 -3.618,1.407 -5.5,2 -2.558,-0.516 -5.058,-0.85 -7.5,-1 -1.333,0.667 -2.667,1.333 -4,2 -3.896,-0.254 -8.229,-0.587 -13,-1 -2.333,0.667 -4.667,1.333 -7,2 -12.0177,-0.158 -24.0177,-0.158 -36,0 -3,-0.667 -6,-1.333 -9,-2 C 38.2897,620.481 23.1231,605.981 18.5,580 L 17,578.5 C 10.7715,545.017 7.27149,511.851 6.5,479 c 0.56887,-23.892 0.56887,-48.892 0,-75 0.90225,-37.673 1.90225,-75.006 3,-112 -0.0678,-22.966 -0.0678,-46.133 0,-69.5 1.1631,-41.466 2.6631,-83.132 4.5,-125 1.0519,-15.1355 3.0519,-30.1355 6,-45 C 25.036,37.4627 35.2026,27.9627 50.5,24 58.4566,17.7533 67.2899,14.2533 77,13.5 82.398,11.103 87.898,9.93631 93.5,10 c 24.814,-0.44639 49.481,-0.61305 74,-0.5 46.035,2.4511 92.535,5.4511 139.5,9 39.398,1.1686 79.065,1.1686 119,0 22.002,1.1236 26.0654,0.951074 47.7304,1.494174 10.731,0.3398 13.10934,2.345626 23.71134,4.005826 0.524,2.9297 1.18745,7.106077 3.32945,9.176377 -1.721,4.5574 -1.03297,8.727951 -5.31197,11.170551 C 479.42022,48.786628 486.961,49.2731 472,50.5 c -3.935,2.4287 -7.768,3.0954 -11.5,2 -4.461,2.0156 -8.628,2.6823 -12.5,2 -5.933,1.8144 -11.767,3.1478 -17.5,4 -2.87,-1.2288 -5.703,-0.8954 -8.5,1 -3.667,-0.3333 -7.333,-0.6667 -11,-1 -1,0.6667 -2,1.3333 -3,2 -4.486,0.2111 -8.819,-0.1222 -13,-1 -1.333,0.6667 -2.667,1.3333 -4,2 -3.871,-0.7558 -7.538,-1.0891 -11,-1 -4.468,0.6935 -8.968,1.3602 -13.5,2 -3.42,-0.5328 -6.92,-0.8661 -10.5,-1 -27.562,2.2412 -55.562,1.9079 -84,-1 -0.333,0.3333 -0.667,0.6667 -1,1 -52.959,-5.9578 -106.126,-9.2911 -159.5,-10 -5.532,0.645 -11.032,1.3117 -16.5,2 l -1,-1 c -2.3333,0.6667 -4.6667,1.3333 -7,2 -1.3159,-2.528 -2.4826,-2.528 -3.5,0 -2.1225,0.1225 -4.2891,0.1225 -6.5,0 -1.3957,2.0268 -3.0624,2.3602 -5,1 -0.3173,1.8008 -0.984,2.1341 -2,1 -3.0279,1.3034 -5.8612,2.9701 -8.5,5 -2.408,3.4077 -3.7413,6.9077 -4,10.5 l 1,1 c -1.7981,10.9827 -3.4648,21.9827 -5,33 1.3602,1.938 1.0268,3.604 -1,5 0.2323,3.038 0.5657,5.704 1,8 -0.6667,2.333 -1.3333,4.667 -2,7 -0.0901,4.604 -0.0901,9.27 0,14 -0.6667,2 -1.3333,4 -2,6 0.6428,2.926 0.9761,5.926 1,9 -0.6667,2.333 -1.3333,4.667 -2,7 0.5848,3.901 0.9182,7.901 1,12 -0.6667,1.333 -1.3333,2.667 -2,4 0.05,7.138 0.3833,13.805 1,20 -0.6667,2.333 -1.3333,4.667 -2,7 0.6474,7.34 0.9807,14.34 1,21 -0.6667,7 -1.3333,14 -2,21 0.8204,5.254 1.1537,10.42 1,15.5 -0.6435,5.198 -1.3102,10.365 -2,15.5 1.1202,62.773 1.1202,124.44 0,185 0.6667,4 1.3333,8 2,12 0.0891,3.462 -0.2442,7.129 -1,11 0.6667,3 1.3333,6 2,9 0.1797,5.232 0.1797,10.565 0,16 0.6667,1.333 1.3333,2.667 2,4 -0.3333,1 -0.6667,2 -1,3 1.8871,10.29 4.5538,20.957 8,32 -1.1341,1.016 -0.8008,1.683 1,2 -0.3333,0.333 -0.6667,0.667 -1,1 1.9224,1.46 2.5891,3.127 2,5 2.1785,0.442 2.8452,1.442 2,3 1.2282,2.14 2.8949,3.807 5,5 -0.3333,0.333 -0.6667,0.667 -1,1 5.5298,5.026 11.8631,8.859 19,11.5 1.3123,-0.96 2.6456,-0.794 4,0.5 32.59,0.416 65.09,-0.418 97.5,-2.5 40.699,0.021 81.199,0.021 121.5,0 60.819,1.685 121.319,2.685 181.5,3 17.235,0.209 34.402,-0.458 51.5,-2 0.586,0.209 1.086,0.543 1.5,1 7.301,-1.284 14.468,-3.117 21.5,-5.5 4.082,-4.479 6.415,-9.479 7,-15 1.77,-7.927 3.103,-15.927 4,-24 l -1,-1 c 0.667,-6 1.333,-12 2,-18 l -1,-1 c 1.265,-21.393 2.598,-43.06 4,-65 -0.333,-1 -0.667,-2 -1,-3 0.762,-14.586 1.762,-29.253 3,-44 -0.333,-1 -0.667,-2 -1,-3 1.306,-27.474 2.64,-55.141 4,-83 -0.004,-66.661 -0.004,-132.994 0,-199 -0.696,-15.302 -2.196,-30.802 -4.5,-46.5 -1.715,-5.7637 -3.715,-11.4303 -6,-17 -10.724,-4.0608 -21.558,-6.5608 -32.5,-7.5 -4.33,-1.1606 -7.997,-3.3272 -11,-6.5 0.534,-2.1145 1.534,-3.9478 3,-5.5 -3.932,-3.0202 -4.599,-6.5202 -2,-10.5 -2.544,-1.8918 -2.544,-3.7252 0,-5.5 4.043,-0.5891 8.043,-1.2558 12,-2 -0.696,-1.488 -0.362,-2.988 1,-4.5 1.667,-0.8333 3.333,-1.66667 5,-2.5 14.47,-3.56711 28.97,-4.06711 43.5,-1.5 1.779,-0.97913 3.445,-0.64579 5,1 6.653,-0.80926 11.653,2.1907 15,9 2.563,11.0673 5.729,22.2339 9.5,33.5 -0.333,0.3333 -0.667,0.6667 -1,1 1.512,3.3394 1.846,6.3394 1,9 1.621,4.9668 1.954,9.3002 1,13 0.667,4.3333 1.333,8.6667 2,13 -0.246,12.0488 -0.579,24.382 -1,37 0.667,6 1.333,12 2,18 -0.946,31.527 -0.946,63.194 0,95 -0.667,3.667 -1.333,7.333 -2,11 0.404,42.981 0.404,85.648 0,128 -0.667,2.667 -1.333,5.333 -2,8 0.95,12.184 1.283,23.851 1,35 -0.667,2 -1.333,4 -2,6 0.247,12.306 0.58,23.64 1,34 -0.667,2 -1.333,4 -2,6 0.392,12.616 0.725,23.949 1,34 -0.667,0.333 -1.333,0.667 -2,1 0.441,16.28 0.774,30.947 1,44 -0.054,11.437 -1.888,22.604 -5.5,33.5 -4.999,6.66 -9.499,13.66 -13.5,21 -5.935,5.307 -12.268,10.14 -19,14.5 -3.773,2.121 -7.439,3.621 -11,4.5 z m -246,-212.5 1,1 c -1.159,1.827 -2.492,3.493 -4,5 l 1,1 c -2.514,2.057 -3.847,4.39 -4,7 -2.514,2.057 -3.847,4.39 -4,7 z"
       id="path1"
       sodipodi:nodetypes="cccccccccccccccccccccccccccccccccccccccccccccccccccccccccccccccccccccccccccccccccccccccccccccccccccccccccccccccccccccccccccccccccccccccccccccccccccccccccccccccc" />
  </g>
  <g
     id="g2">
    <path
       style="opacity:0.905"
       fill="#ba4934"
       d="m 277.5,133.5 c 16.505,-1.621 31.505,2.545 45,12.5 20.868,8.539 35.368,23.372 43.5,44.5 11.483,31.756 15.317,63.922 11.5,96.5 -3.447,48.731 -19.947,92.564 -49.5,131.5 -3.465,2.463 -6.631,5.296 -9.5,8.5 0.608,0.87 1.441,1.37 2.5,1.5 1.789,-0.909 3.623,-1.076 5.5,-0.5 14.613,7.094 29.946,11.76 46,14 10.489,0.415 20.823,0.581 31,0.5 2.907,-0.51 5.741,-1.177 8.5,-2 1.628,0.597 3.295,0.263 5,-1 5.49,0.468 10.823,-0.532 16,-3 l 1,1 c 17.152,-6.16 33.319,-14.326 48.5,-24.5 8.816,-7.573 17.816,-14.906 27,-22 9.198,-4.623 18.864,-6.123 29,-4.5 0.915,2.418 2.415,4.418 4.5,6 3.201,-2.99 5.368,-2.323 6.5,2 -1.052,3.421 -1.052,6.921 0,10.5 -1.573,5.339 -2.406,10.839 -2.5,16.5 -2.937,9.372 -8.437,16.872 -16.5,22.5 -42.162,32.109 -88.662,44.276 -139.5,36.5 -1.398,0.551 -2.732,0.884 -4,1 -1.667,-0.667 -3.333,-1.333 -5,-2 -4.545,1.197 -9.545,0.531 -15,-2 l -1,1 c -10.513,-3.241 -20.013,-7.074 -28.5,-11.5 -4.891,-3.736 -9.891,-7.236 -15,-10.5 -3.962,-4.788 -7.295,-9.955 -10,-15.5 0.818,-3.245 2.818,-5.412 6,-6.5 -1.252,-1.501 -2.252,-3.168 -3,-5 -19.147,12.635 -39.147,23.802 -60,33.5 -3.847,1.616 -7.847,2.616 -12,3 -43.214,5.464 -85.714,4.297 -127.5,-3.5 -9.922,-2.938 -19.755,-6.104 -29.5,-9.5 -8.2201,-4.719 -14.5534,-11.219 -19,-19.5 0.5983,-1.295 1.0983,-2.628 1.5,-4 0.8926,-0.581 1.8926,-0.915 3,-1 12.6779,2.42 25.1779,5.586 37.5,9.5 39.621,7.658 78.454,6.825 116.5,-2.5 l 1,1 c 19.486,-6.993 37.652,-16.493 54.5,-28.5 -1.795,-0.257 -3.795,-0.923 -6,-2 -14.403,-9.401 -26.57,-21.234 -36.5,-35.5 -9.829,-16.161 -18.996,-32.661 -27.5,-49.5 -2.178,-7.175 -4.845,-14.508 -8,-22 l 1,-1 c -2.676,-5.707 -4.676,-11.374 -6,-17 v -9 c -4.068,-17.68 -3.901,-35.847 0.5,-54.5 3.927,-15.226 8.927,-29.226 15,-42 10.028,-17.912 25.528,-30.746 46.5,-38.5 5.801,-1.184 11.468,-2.351 17,-3.5 z m 13,41 c -6.065,1.636 -12.065,3.803 -18,6.5 -26.167,18.833 -38.5,44.333 -37,76.5 8.661,41.482 23.161,80.816 43.5,118 4.258,9.673 6.258,19.673 6,30 12.169,-7.825 21.669,-17.659 28.5,-29.5 0.153,-2.61 1.486,-4.943 4,-7 0.153,-2.61 1.486,-4.943 4,-7 l -1,-1 c 1.508,-1.507 2.841,-3.173 4,-5 l -1,-1 6,-9 -0.0517,-0.0517 c 2.551,-4.271 3.7697,-9.7193 5.5517,-14.4483 13.223,-42.734 12.557,-85.4 -2,-128 -8.146,-19.113 -22.312,-28.78 -42.5,-29 z"
       id="path2"
       sodipodi:nodetypes="cccccccccccccccccccccccccccccccccccccccccccccccccccccccccccccccccccccc" />
  </g>
  <g
     id="g3"
     transform="translate(0,-50)">
    <path
       style="opacity:0.87"
       fill="#ba4934"
       d="m 396.5,300.5 c 3.149,-0.289 6.149,0.211 9,1.5 23.868,37.555 45.868,76.722 66,117.5 -0.209,0.586 -0.543,1.086 -1,1.5 2.132,0.918 2.799,2.251 2,4 3.42,7.098 5.754,14.598 7,22.5 -1.219,9.174 -5.552,11.674 -13,7.5 -5.2,-4.865 -10.033,-10.032 -14.5,-15.5 -22.73,-37.16 -43.396,-75.494 -62,-115 -1.57,-6.229 -2.404,-12.562 -2.5,-19 1.644,-0.214 3.144,0.12 4.5,1 1.752,-1.851 3.252,-3.851 4.5,-6 z"
       id="path3" />
  </g>
  <g
     id="g4"
     transform="translate(0,-50)">
    <path
       style="opacity:0.855"
       fill="#ba4934"
       d="m 176.5,302.5 c 3.018,-0.165 6.018,0.002 9,0.5 1.214,4.247 2.547,8.414 4,12.5 -15.647,45.168 -36.147,87.834 -61.5,128 -4.31,5.811 -8.81,11.477 -13.5,17 -2.888,2.017 -6.054,3.351 -9.5,4 -1.972,-0.805 -3.472,-2.139 -4.5,-4 0.12,-4.581 0.287,-9.248 0.5,-14 5.723,-15.113 11.723,-30.113 18,-45 15.256,-30.179 30.256,-60.512 45,-91 2.751,-3.056 5.584,-3.89 8.5,-2.5 1.165,-1.992 2.498,-3.825 4,-5.5 z"
       id="path4" />
  </g>
  <g
     id="g5">
    <path
       style="opacity:0.004"
       fill="#a4402e"
       d="M 568.5,617.5 C 568.833,617.5 569.167,617.5 569.5,617.5C 569.315,618.17 568.981,618.17 568.5,617.5 Z"
       id="path5" />
  </g>
</svg>
