<?xml version="1.0" encoding="UTF-8"?>
<!DOCTYPE svg PUBLIC "-//W3C//DTD SVG 1.1//EN" "http://www.w3.org/Graphics/SVG/1.1/DTD/svg11.dtd">
<svg xmlns="http://www.w3.org/2000/svg" version="1.1" width="512px" height="512px" style="shape-rendering:geometricPrecision; text-rendering:geometricPrecision; image-rendering:optimizeQuality; fill-rule:evenodd; clip-rule:evenodd" xmlns:xlink="http://www.w3.org/1999/xlink">
<g><path style="opacity:0.999" fill="#ba0100" d="M 57.5,-0.5 C 189.833,-0.5 322.167,-0.5 454.5,-0.5C 487.378,4.04519 506.378,22.7119 511.5,55.5C 511.5,188.833 511.5,322.167 511.5,455.5C 509.107,477.799 498.107,494.299 478.5,505C 471.23,507.812 463.896,509.979 456.5,511.5C 322.833,511.5 189.167,511.5 55.5,511.5C 23.1706,506.504 4.50398,487.837 -0.5,455.5C -0.5,322.167 -0.5,188.833 -0.5,55.5C 4.71226,22.2888 24.0456,3.62214 57.5,-0.5 Z"/></g>
<g><path style="opacity:1" fill="#cb3f3b" d="M 260.5,34.5 C 255.155,34.6865 249.822,35.0199 244.5,35.5C 247.55,34.0648 250.883,33.3981 254.5,33.5C 256.696,33.5046 258.696,33.838 260.5,34.5 Z"/></g>
<g><path style="opacity:1" fill="#f1caca" d="M 260.5,34.5 C 262.306,35.0241 263.972,35.6908 265.5,36.5C 256.472,36.3195 247.472,36.6529 238.5,37.5C 238.5,37.1667 238.5,36.8333 238.5,36.5C 240.435,35.8505 242.435,35.5172 244.5,35.5C 249.822,35.0199 255.155,34.6865 260.5,34.5 Z"/></g>
<g><path style="opacity:1" fill="#fefdfc" d="M 265.5,36.5 C 266.833,36.5 268.167,36.5 269.5,36.5C 272.369,39.758 276.036,41.0914 280.5,40.5C 284.234,41.6822 287.9,43.0155 291.5,44.5C 291.973,45.9063 292.973,46.573 294.5,46.5C 296.98,47.9117 299.313,49.5784 301.5,51.5C 303.458,54.7915 305.791,57.7915 308.5,60.5C 321.857,68.8469 331.191,80.5135 336.5,95.5C 337.5,98.1667 338.5,100.833 339.5,103.5C 345.952,125.307 348.286,147.64 346.5,170.5C 346.5,173.5 346.5,176.5 346.5,179.5C 344.922,184.583 344.255,189.916 344.5,195.5C 341.894,201.773 340.561,208.439 340.5,215.5C 340.5,216.5 340.5,217.5 340.5,218.5C 337.946,226.039 335.446,233.706 333,241.5C 332.545,244.854 332.045,248.187 331.5,251.5C 330.442,252.6 329.608,253.934 329,255.5C 326.683,262.299 324.85,269.299 323.5,276.5C 319.723,279.984 316.556,283.984 314,288.5C 314.11,292.539 313.276,296.539 311.5,300.5C 309.833,301.167 308.167,301.833 306.5,302.5C 303.559,309.715 300.059,316.715 296,323.5C 295.055,327.494 294.222,331.494 293.5,335.5C 291.159,338.839 288.826,342.172 286.5,345.5C 284.836,348.159 283.17,350.825 281.5,353.5C 278.444,355.949 276.111,358.949 274.5,362.5C 269.175,369.491 263.175,375.824 256.5,381.5C 254.118,383.215 252.118,385.215 250.5,387.5C 225.429,409.888 197.429,428.055 166.5,442C 159.143,445.256 151.476,447.423 143.5,448.5C 137.589,449.792 131.589,450.625 125.5,451C 124.058,451.377 123.058,452.21 122.5,453.5C 104.827,454.819 87.1601,454.819 69.5,453.5C 63.0375,451.811 56.3708,450.311 49.5,449C 48.8095,447.933 48.3095,446.766 48,445.5C 47.3292,444.748 46.4959,444.414 45.5,444.5C 41.6873,443.524 40.6873,441.19 42.5,437.5C 43.5904,436.273 44.9238,435.44 46.5,435C 45.2567,433.846 44.2567,432.512 43.5,431C 37.3215,431.27 34.3215,428.436 34.5,422.5C 37.6893,421.834 41.0227,421.167 44.5,420.5C 41.8118,419.145 39.8118,417.145 38.5,414.5C 40.2789,412.656 42.6122,411.99 45.5,412.5C 45.33,411.178 45.6634,410.011 46.5,409C 50.4862,408.501 54.4862,408.334 58.5,408.5C 61.8333,408.5 65.1667,408.5 68.5,408.5C 68.8417,409.338 69.5084,409.672 70.5,409.5C 85.783,411.177 101.116,410.511 116.5,407.5C 118.821,406.94 120.821,405.94 122.5,404.5C 127.222,404.626 131.555,403.626 135.5,401.5C 148.925,398.619 161.258,393.286 172.5,385.5C 172.821,383.952 173.821,383.285 175.5,383.5C 175.5,382.5 175.5,381.5 175.5,380.5C 180.429,381.472 183.929,379.472 186,374.5C 186.718,375.451 187.551,375.617 188.5,375C 191.734,372.252 195.068,369.752 198.5,367.5C 202.035,366.735 205.369,365.401 208.5,363.5C 219.467,354.367 229.633,344.367 239,333.5C 240.371,328.385 243.371,324.719 248,322.5C 250.038,319.757 251.538,316.757 252.5,313.5C 256.391,306.731 260.558,300.064 265,293.5C 265.813,291.564 266.313,289.564 266.5,287.5C 270.045,285.075 272.045,281.742 272.5,277.5C 272.328,276.508 272.662,275.842 273.5,275.5C 275.451,273.52 276.951,271.187 278,268.5C 278.49,267.207 278.657,265.873 278.5,264.5C 278.796,262.597 279.463,260.93 280.5,259.5C 282.008,257.819 283.008,255.819 283.5,253.5C 284.047,250.298 285.047,247.298 286.5,244.5C 287.117,244.389 287.617,244.056 288,243.5C 288.965,238.464 290.465,233.63 292.5,229C 292.167,228.667 291.833,228.333 291.5,228C 292.5,225.667 293.5,223.333 294.5,221C 294.466,218.734 294.466,216.567 294.5,214.5C 294.5,214.167 294.5,213.833 294.5,213.5C 296.379,213.607 296.712,213.107 295.5,212C 297.117,210.908 298.117,209.408 298.5,207.5C 302.54,192.903 304.54,177.903 304.5,162.5C 304.509,153.806 304.009,145.139 303,136.5C 302.768,135.263 302.268,134.263 301.5,133.5C 300.289,123.987 298.123,114.654 295,105.5C 294.617,104.944 294.117,104.611 293.5,104.5C 291.656,100.136 289.323,96.1362 286.5,92.5C 282.062,88.3803 276.729,86.3803 270.5,86.5C 269.036,85.8401 267.369,85.5068 265.5,85.5C 262.514,85.3817 259.848,86.0483 257.5,87.5C 252.835,88.8278 248.835,91.1611 245.5,94.5C 241.36,96.3952 238.36,99.3952 236.5,103.5C 229.984,111.856 224.984,121.189 221.5,131.5C 219.256,135.793 217.923,140.46 217.5,145.5C 216.634,157.477 216.301,169.477 216.5,181.5C 216.686,209.396 220.019,236.73 226.5,263.5C 229.448,279.632 233.781,295.299 239.5,310.5C 238.949,313.807 238.616,317.14 238.5,320.5C 238.972,323.358 237.972,325.358 235.5,326.5C 232.521,326.542 229.521,326.542 226.5,326.5C 223.452,323.748 220.285,321.081 217,318.5C 209.132,306.716 202.298,294.382 196.5,281.5C 193.307,273.1 189.807,264.767 186,256.5C 182.468,242.371 178.968,228.371 175.5,214.5C 174.873,209.859 174.54,205.193 174.5,200.5C 172.459,172.69 173.459,145.023 177.5,117.5C 178.847,109.747 180.514,102.08 182.5,94.5C 183.989,90.6767 185.656,87.01 187.5,83.5C 190.362,79.1088 192.696,74.4422 194.5,69.5C 194.328,68.5084 194.662,67.8417 195.5,67.5C 203.52,59.4797 211.853,51.813 220.5,44.5C 226.143,41.003 232.143,38.6697 238.5,37.5C 247.472,36.6529 256.472,36.3195 265.5,36.5 Z"/></g>
<g><path style="opacity:1" fill="#efbcbb" d="M 269.5,36.5 C 273.419,37.3873 277.085,38.7207 280.5,40.5C 276.036,41.0914 272.369,39.758 269.5,36.5 Z"/></g>
<g><path style="opacity:1" fill="#de8280" d="M 291.5,44.5 C 293.027,44.427 294.027,45.0937 294.5,46.5C 292.973,46.573 291.973,45.9063 291.5,44.5 Z"/></g>
<g><path style="opacity:1" fill="#e9abaa" d="M 238.5,36.5 C 238.5,36.8333 238.5,37.1667 238.5,37.5C 232.143,38.6697 226.143,41.003 220.5,44.5C 211.853,51.813 203.52,59.4797 195.5,67.5C 195.5,66.8333 195.5,66.1667 195.5,65.5C 205.205,49.153 219.538,39.4864 238.5,36.5 Z"/></g>
<g><path style="opacity:1" fill="#e08a8a" d="M 301.5,51.5 C 318.955,56.3737 330.789,67.3737 337,84.5C 339.079,88.6522 340.579,92.9855 341.5,97.5C 340.503,97.4701 339.836,97.9701 339.5,99C 340.608,100.677 340.608,102.177 339.5,103.5C 338.5,100.833 337.5,98.1667 336.5,95.5C 337.097,95.2648 337.43,94.7648 337.5,94C 334.88,85.5937 331.047,77.7603 326,70.5C 321.333,64.7962 315.666,60.4629 309,57.5C 308.5,57.6667 308,57.8333 307.5,58C 308.252,58.6708 308.586,59.5041 308.5,60.5C 305.791,57.7915 303.458,54.7915 301.5,51.5 Z"/></g>
<g><path style="opacity:1" fill="#c7332e" d="M 336.5,95.5 C 331.191,80.5135 321.857,68.8469 308.5,60.5C 308.586,59.5041 308.252,58.6708 307.5,58C 308,57.8333 308.5,57.6667 309,57.5C 315.666,60.4629 321.333,64.7962 326,70.5C 331.047,77.7603 334.88,85.5937 337.5,94C 337.43,94.7648 337.097,95.2648 336.5,95.5 Z"/></g>
<g><path style="opacity:1" fill="#e9a9a8" d="M 194.5,69.5 C 192.696,74.4422 190.362,79.1088 187.5,83.5C 188.258,77.9838 190.591,73.3172 194.5,69.5 Z"/></g>
<g><path style="opacity:1" fill="#c2231e" d="M 195.5,65.5 C 195.5,66.1667 195.5,66.8333 195.5,67.5C 194.662,67.8417 194.328,68.5084 194.5,69.5C 190.591,73.3172 188.258,77.9838 187.5,83.5C 185.656,87.01 183.989,90.6767 182.5,94.5C 181.131,97.962 179.464,101.295 177.5,104.5C 177.838,100.315 179.171,96.4813 181.5,93C 181.255,90.9114 181.255,88.9114 181.5,87C 183.181,85.0545 183.848,83.0545 183.5,81C 185.301,80.6827 185.634,80.016 184.5,79C 186.617,75.434 188.284,72.1007 189.5,69C 191.24,67.3055 193.24,66.1389 195.5,65.5 Z"/></g>
<g><path style="opacity:1" fill="#e7a5a4" d="M 270.5,86.5 C 266.131,86.4672 261.798,86.8005 257.5,87.5C 259.848,86.0483 262.514,85.3817 265.5,85.5C 267.369,85.5068 269.036,85.8401 270.5,86.5 Z"/></g>
<g><path style="opacity:1" fill="#ba0301" d="M 270.5,86.5 C 275.743,88.4878 281.076,90.4878 286.5,92.5C 289.323,96.1362 291.656,100.136 293.5,104.5C 296.035,116.043 298.035,127.71 299.5,139.5C 300.249,150.484 300.583,161.484 300.5,172.5C 300.232,175.119 300.565,177.619 301.5,180C 301,180.5 300.5,181 300,181.5C 298.839,187.464 298.006,193.464 297.5,199.5C 297.5,199.833 297.5,200.167 297.5,200.5C 295.882,204.575 294.882,208.908 294.5,213.5C 294.5,213.833 294.5,214.167 294.5,214.5C 290.607,224.063 287.941,234.063 286.5,244.5C 285.047,247.298 284.047,250.298 283.5,253.5C 281.461,254.911 280.461,256.911 280.5,259.5C 279.463,260.93 278.796,262.597 278.5,264.5C 276.034,267.767 274.368,271.434 273.5,275.5C 272.662,275.842 272.328,276.508 272.5,277.5C 269.704,280.31 267.704,283.643 266.5,287.5C 259.847,297.001 253.347,306.667 247,316.5C 244.65,318.683 242.483,321.016 240.5,323.5C 239.824,322.398 239.158,321.398 238.5,320.5C 238.616,317.14 238.949,313.807 239.5,310.5C 239.982,309.584 240.315,308.584 240.5,307.5C 232.623,283.367 227.123,258.701 224,233.5C 223.722,232.584 223.222,231.918 222.5,231.5C 220.312,214.727 218.312,198.06 216.5,181.5C 216.301,169.477 216.634,157.477 217.5,145.5C 219.45,141.133 220.783,136.466 221.5,131.5C 224.984,121.189 229.984,111.856 236.5,103.5C 239.694,100.728 242.694,97.7279 245.5,94.5C 248.835,91.1611 252.835,88.8278 257.5,87.5C 261.798,86.8005 266.131,86.4672 270.5,86.5 Z"/></g>
<g><path style="opacity:1" fill="#d76867" d="M 270.5,86.5 C 276.729,86.3803 282.062,88.3803 286.5,92.5C 281.076,90.4878 275.743,88.4878 270.5,86.5 Z"/></g>
<g><path style="opacity:1" fill="#d25752" d="M 245.5,94.5 C 242.694,97.7279 239.694,100.728 236.5,103.5C 238.36,99.3952 241.36,96.3952 245.5,94.5 Z"/></g>
<g><path style="opacity:1" fill="#edbcbb" d="M 182.5,94.5 C 180.514,102.08 178.847,109.747 177.5,117.5C 175.367,120.148 174.034,122.815 173.5,125.5C 173.5,124.167 173.5,122.833 173.5,121.5C 175.616,116.034 176.95,110.368 177.5,104.5C 179.464,101.295 181.131,97.962 182.5,94.5 Z"/></g>
<g><path style="opacity:1" fill="#e69f9e" d="M 341.5,97.5 C 343.403,103.64 344.903,109.974 346,116.5C 347.628,134.649 347.795,152.649 346.5,170.5C 348.286,147.64 345.952,125.307 339.5,103.5C 340.608,102.177 340.608,100.677 339.5,99C 339.836,97.9701 340.503,97.4701 341.5,97.5 Z"/></g>
<g><path style="opacity:1" fill="#eebdbd" d="M 221.5,131.5 C 220.783,136.466 219.45,141.133 217.5,145.5C 217.923,140.46 219.256,135.793 221.5,131.5 Z"/></g>
<g><path style="opacity:1" fill="#e18d8c" d="M 293.5,104.5 C 294.117,104.611 294.617,104.944 295,105.5C 298.123,114.654 300.289,123.987 301.5,133.5C 301.062,133.435 300.728,133.601 300.5,134C 301.167,136 301.833,138 302.5,140C 302.167,141.667 301.833,143.333 301.5,145C 302.167,149 302.833,153 303.5,157C 302.167,157.667 302.167,158.333 303.5,159C 302.906,159.464 302.239,159.631 301.5,159.5C 301.793,152.595 301.126,145.928 299.5,139.5C 298.035,127.71 296.035,116.043 293.5,104.5 Z"/></g>
<g><path style="opacity:1" fill="#f9e8e8" d="M 177.5,117.5 C 173.459,145.023 172.459,172.69 174.5,200.5C 172.99,180.123 171.99,159.623 171.5,139C 172.833,138.333 172.833,137.667 171.5,137C 172.167,136.667 172.833,136.333 173.5,136C 173.48,132.735 173.48,129.568 173.5,126.5C 173.5,126.167 173.5,125.833 173.5,125.5C 174.034,122.815 175.367,120.148 177.5,117.5 Z"/></g>
<g><path style="opacity:1" fill="#d4605f" d="M 299.5,139.5 C 301.126,145.928 301.793,152.595 301.5,159.5C 302.394,163.912 302.061,168.246 300.5,172.5C 300.583,161.484 300.249,150.484 299.5,139.5 Z"/></g>
<g><path style="opacity:1" fill="#cf504e" d="M 173.5,121.5 C 173.5,122.833 173.5,124.167 173.5,125.5C 173.5,125.833 173.5,126.167 173.5,126.5C 172.678,128.389 171.845,130.389 171,132.5C 169.783,144.803 169.283,157.137 169.5,169.5C 169.5,176.167 169.5,182.833 169.5,189.5C 168.118,170.309 168.284,150.976 170,131.5C 171.184,128.058 172.35,124.725 173.5,121.5 Z"/></g>
<g><path style="opacity:1" fill="#e8abaa" d="M 301.5,133.5 C 302.268,134.263 302.768,135.263 303,136.5C 304.009,145.139 304.509,153.806 304.5,162.5C 303.986,166.699 302.986,170.866 301.5,175C 302.595,183.594 301.262,191.76 297.5,199.5C 298.006,193.464 298.839,187.464 300,181.5C 300.5,181 301,180.5 301.5,180C 300.565,177.619 300.232,175.119 300.5,172.5C 302.061,168.246 302.394,163.912 301.5,159.5C 302.239,159.631 302.906,159.464 303.5,159C 302.167,158.333 302.167,157.667 303.5,157C 302.833,153 302.167,149 301.5,145C 301.833,143.333 302.167,141.667 302.5,140C 301.833,138 301.167,136 300.5,134C 300.728,133.601 301.062,133.435 301.5,133.5 Z"/></g>
<g><path style="opacity:1" fill="#eab3b3" d="M 173.5,126.5 C 173.48,129.568 173.48,132.735 173.5,136C 172.833,136.333 172.167,136.667 171.5,137C 172.833,137.667 172.833,138.333 171.5,139C 171.99,159.623 172.99,180.123 174.5,200.5C 174.54,205.193 174.873,209.859 175.5,214.5C 175.5,215.167 175.5,215.833 175.5,216.5C 174.761,216.631 174.094,216.464 173.5,216C 173.833,215 174.167,214 174.5,213C 172.206,205.911 171.54,199.244 172.5,193C 172.646,190.966 171.98,189.299 170.5,188C 170.833,185.667 171.167,183.333 171.5,181C 170.862,177.065 170.196,173.231 169.5,169.5C 169.283,157.137 169.783,144.803 171,132.5C 171.845,130.389 172.678,128.389 173.5,126.5 Z"/></g>
<g><path style="opacity:1" fill="#fdfafa" d="M 365.5,187.5 C 368.788,188.626 370.955,190.96 372,194.5C 392.808,252.746 410.642,311.746 425.5,371.5C 425.294,374.495 425.96,377.162 427.5,379.5C 428.713,387.784 429.38,396.117 429.5,404.5C 426.675,404.919 424.509,403.919 423,401.5C 420.412,397.326 418.079,392.993 416,388.5C 406.337,365.009 397.17,341.342 388.5,317.5C 387.408,312.345 386.075,307.345 384.5,302.5C 383.833,300.833 383.167,299.167 382.5,297.5C 382.59,294.848 381.924,292.515 380.5,290.5C 375.275,273.499 370.275,256.499 365.5,239.5C 364.947,234.194 363.614,229.194 361.5,224.5C 358.724,217.065 356.724,209.398 355.5,201.5C 354.979,197.519 354.646,193.519 354.5,189.5C 355.719,187.364 356.552,185.031 357,182.5C 357.667,183.167 358.333,183.833 359,184.5C 359.725,182.842 360.892,182.342 362.5,183C 363.386,184.615 364.386,186.115 365.5,187.5 Z"/></g>
<g><path style="opacity:1" fill="#f5dcdc" d="M 304.5,162.5 C 304.54,177.903 302.54,192.903 298.5,207.5C 298.453,204.702 298.12,202.369 297.5,200.5C 297.5,200.167 297.5,199.833 297.5,199.5C 301.262,191.76 302.595,183.594 301.5,175C 302.986,170.866 303.986,166.699 304.5,162.5 Z"/></g>
<g><path style="opacity:1" fill="#fefafa" d="M 151.5,219.5 C 149.528,222.084 148.528,225.084 148.5,228.5C 148.5,228.833 148.5,229.167 148.5,229.5C 147.326,230.514 146.66,231.847 146.5,233.5C 130.933,278.108 113.1,321.775 93,364.5C 88.838,372.828 84.1714,380.828 79,388.5C 77,391.833 74.3333,394.5 71,396.5C 69.977,395.4 69.477,394.067 69.5,392.5C 70.1688,388.487 70.8355,384.487 71.5,380.5C 75.9322,365.038 81.0989,349.704 87,334.5C 102.609,297.614 117.943,260.614 133,223.5C 137.224,213.642 141.724,203.975 146.5,194.5C 149.095,193.574 151.095,191.907 152.5,189.5C 153.517,192.028 154.684,192.028 156,189.5C 156.684,190.784 156.517,191.951 155.5,193C 157.418,194.77 157.918,196.937 157,199.5C 155.263,206.208 153.43,212.875 151.5,219.5 Z"/></g>
<g><path style="opacity:1" fill="#e08c8c" d="M 354.5,189.5 C 354.646,193.519 354.979,197.519 355.5,201.5C 353.511,197.598 353.177,193.598 354.5,189.5 Z"/></g>
<g><path style="opacity:1" fill="#d45e5a" d="M 346.5,179.5 C 346.624,185.069 345.957,190.402 344.5,195.5C 344.255,189.916 344.922,184.583 346.5,179.5 Z"/></g>
<g><path style="opacity:1" fill="#e9a9a8" d="M 344.5,195.5 C 344.223,202.523 342.89,209.189 340.5,215.5C 340.561,208.439 341.894,201.773 344.5,195.5 Z"/></g>
<g><path style="opacity:1" fill="#ebb3b2" d="M 216.5,181.5 C 218.312,198.06 220.312,214.727 222.5,231.5C 223.926,242.15 225.259,252.816 226.5,263.5C 220.019,236.73 216.686,209.396 216.5,181.5 Z"/></g>
<g><path style="opacity:1" fill="#eaaead" d="M 297.5,200.5 C 298.12,202.369 298.453,204.702 298.5,207.5C 298.117,209.408 297.117,210.908 295.5,212C 296.712,213.107 296.379,213.607 294.5,213.5C 294.882,208.908 295.882,204.575 297.5,200.5 Z"/></g>
<g><path style="opacity:1" fill="#e28c8a" d="M 151.5,219.5 C 151.072,222.785 150.072,225.785 148.5,228.5C 148.528,225.084 149.528,222.084 151.5,219.5 Z"/></g>
<g><path style="opacity:1" fill="#e18b89" d="M 294.5,214.5 C 294.466,216.567 294.466,218.734 294.5,221C 293.5,223.333 292.5,225.667 291.5,228C 291.833,228.333 292.167,228.667 292.5,229C 290.465,233.63 288.965,238.464 288,243.5C 287.617,244.056 287.117,244.389 286.5,244.5C 287.941,234.063 290.607,224.063 294.5,214.5 Z"/></g>
<g><path style="opacity:1" fill="#eab0af" d="M 361.5,224.5 C 363.614,229.194 364.947,234.194 365.5,239.5C 363.409,234.809 362.076,229.809 361.5,224.5 Z"/></g>
<g><path style="opacity:1" fill="#ecb7b7" d="M 340.5,218.5 C 338.566,229.912 335.566,240.912 331.5,251.5C 332.045,248.187 332.545,244.854 333,241.5C 335.446,233.706 337.946,226.039 340.5,218.5 Z"/></g>
<g><path style="opacity:1" fill="#df8482" d="M 148.5,229.5 C 148.771,231.38 148.104,232.713 146.5,233.5C 146.66,231.847 147.326,230.514 148.5,229.5 Z"/></g>
<g><path style="opacity:1" fill="#e18e8d" d="M 169.5,169.5 C 170.196,173.231 170.862,177.065 171.5,181C 171.167,183.333 170.833,185.667 170.5,188C 171.98,189.299 172.646,190.966 172.5,193C 171.54,199.244 172.206,205.911 174.5,213C 174.167,214 173.833,215 173.5,216C 174.094,216.464 174.761,216.631 175.5,216.5C 177.659,228.961 180.325,241.294 183.5,253.5C 181.408,250.527 179.908,247.193 179,243.5C 173.596,225.874 170.43,207.874 169.5,189.5C 169.5,182.833 169.5,176.167 169.5,169.5 Z"/></g>
<g><path style="opacity:1" fill="#d66766" d="M 146.5,194.5 C 141.724,203.975 137.224,213.642 133,223.5C 117.943,260.614 102.609,297.614 87,334.5C 81.0989,349.704 75.9322,365.038 71.5,380.5C 74.6733,364.477 79.1733,348.81 85,333.5C 101.333,294.5 117.667,255.5 134,216.5C 137.473,208.221 141.473,200.221 146,192.5C 146.464,193.094 146.631,193.761 146.5,194.5 Z"/></g>
<g><path style="opacity:1" fill="#dc7d7b" d="M 283.5,253.5 C 283.008,255.819 282.008,257.819 280.5,259.5C 280.461,256.911 281.461,254.911 283.5,253.5 Z"/></g>
<g><path style="opacity:1" fill="#eaabaa" d="M 331.5,251.5 C 330.211,260.378 327.545,268.711 323.5,276.5C 324.85,269.299 326.683,262.299 329,255.5C 329.608,253.934 330.442,252.6 331.5,251.5 Z"/></g>
<g><path style="opacity:1" fill="#f4d7d7" d="M 175.5,214.5 C 178.968,228.371 182.468,242.371 186,256.5C 189.807,264.767 193.307,273.1 196.5,281.5C 191.671,272.502 187.337,263.169 183.5,253.5C 180.325,241.294 177.659,228.961 175.5,216.5C 175.5,215.833 175.5,215.167 175.5,214.5 Z"/></g>
<g><path style="opacity:1" fill="#eaaaa8" d="M 278.5,264.5 C 278.657,265.873 278.49,267.207 278,268.5C 276.951,271.187 275.451,273.52 273.5,275.5C 274.368,271.434 276.034,267.767 278.5,264.5 Z"/></g>
<g><path style="opacity:1" fill="#e29392" d="M 222.5,231.5 C 223.222,231.918 223.722,232.584 224,233.5C 227.123,258.701 232.623,283.367 240.5,307.5C 240.315,308.584 239.982,309.584 239.5,310.5C 233.781,295.299 229.448,279.632 226.5,263.5C 225.259,252.816 223.926,242.15 222.5,231.5 Z"/></g>
<g><path style="opacity:1" fill="#edb7b6" d="M 272.5,277.5 C 272.045,281.742 270.045,285.075 266.5,287.5C 267.704,283.643 269.704,280.31 272.5,277.5 Z"/></g>
<g><path style="opacity:1" fill="#dc7d7c" d="M 425.5,371.5 C 410.642,311.746 392.808,252.746 372,194.5C 370.955,190.96 368.788,188.626 365.5,187.5C 368.374,185.742 370.541,186.408 372,189.5C 378.458,204.872 384.124,220.539 389,236.5C 396.465,261.227 404.131,285.894 412,310.5C 416.979,330.748 421.479,351.081 425.5,371.5 Z"/></g>
<g><path style="opacity:1" fill="#f4d4d3" d="M 323.5,276.5 C 315.862,297.443 305.862,317.109 293.5,335.5C 294.222,331.494 295.055,327.494 296,323.5C 300.059,316.715 303.559,309.715 306.5,302.5C 308.167,301.833 309.833,301.167 311.5,300.5C 313.276,296.539 314.11,292.539 314,288.5C 316.556,283.984 319.723,279.984 323.5,276.5 Z"/></g>
<g><path style="opacity:1" fill="#d5605c" d="M 380.5,290.5 C 381.924,292.515 382.59,294.848 382.5,297.5C 381.076,295.485 380.41,293.152 380.5,290.5 Z"/></g>
<g><path style="opacity:1" fill="#cc443d" d="M 384.5,302.5 C 386.075,307.345 387.408,312.345 388.5,317.5C 385.916,312.95 384.583,307.95 384.5,302.5 Z"/></g>
<g><path style="opacity:1" fill="#e59c9b" d="M 266.5,287.5 C 266.313,289.564 265.813,291.564 265,293.5C 260.558,300.064 256.391,306.731 252.5,313.5C 245.498,320.843 238.498,328.176 231.5,335.5C 230.902,336.795 230.402,338.128 230,339.5C 220.117,349.688 209.617,359.021 198.5,367.5C 195.068,369.752 191.734,372.252 188.5,375C 187.551,375.617 186.718,375.451 186,374.5C 183.929,379.472 180.429,381.472 175.5,380.5C 198.682,365.835 219.348,348.002 237.5,327C 236.906,326.536 236.239,326.369 235.5,326.5C 237.972,325.358 238.972,323.358 238.5,320.5C 239.158,321.398 239.824,322.398 240.5,323.5C 242.483,321.016 244.65,318.683 247,316.5C 253.347,306.667 259.847,297.001 266.5,287.5 Z"/></g>
<g><path style="opacity:1" fill="#f8e6e6" d="M 252.5,313.5 C 251.538,316.757 250.038,319.757 248,322.5C 243.371,324.719 240.371,328.385 239,333.5C 229.633,344.367 219.467,354.367 208.5,363.5C 205.369,365.401 202.035,366.735 198.5,367.5C 209.617,359.021 220.117,349.688 230,339.5C 230.402,338.128 230.902,336.795 231.5,335.5C 238.498,328.176 245.498,320.843 252.5,313.5 Z"/></g>
<g><path style="opacity:1" fill="#d5615e" d="M 286.5,345.5 C 286.348,349.141 284.682,351.807 281.5,353.5C 283.17,350.825 284.836,348.159 286.5,345.5 Z"/></g>
<g><path style="opacity:1" fill="#cf4e49" d="M 281.5,353.5 C 280.306,357.363 277.973,360.363 274.5,362.5C 276.111,358.949 278.444,355.949 281.5,353.5 Z"/></g>
<g><path style="opacity:1" fill="#fefcfc" d="M 292.5,385.5 C 293.891,387.89 295.891,389.557 298.5,390.5C 304.698,396.101 311.698,400.434 319.5,403.5C 342.031,415.206 366.031,419.872 391.5,417.5C 401.624,417.994 411.624,417.161 421.5,415C 422.056,414.617 422.389,414.117 422.5,413.5C 426.939,413.246 431.272,412.412 435.5,411C 440.823,410.501 446.156,410.334 451.5,410.5C 450.599,413.872 450.599,417.205 451.5,420.5C 454.819,422.401 457.985,424.401 461,426.5C 464.004,427.123 466.838,428.123 469.5,429.5C 469.67,430.822 469.337,431.989 468.5,433C 466.5,434 464.5,435 462.5,436C 456.005,437.373 449.671,439.206 443.5,441.5C 444.592,443.596 446.259,444.929 448.5,445.5C 453.434,443.945 458.434,443.112 463.5,443C 464.64,444.973 465.973,446.807 467.5,448.5C 466.086,449.624 464.586,450.624 463,451.5C 462.51,452.793 462.343,454.127 462.5,455.5C 459.169,455.018 456.503,456.018 454.5,458.5C 449.654,460.039 444.654,460.706 439.5,460.5C 422.182,461.36 404.849,461.693 387.5,461.5C 381.858,460.646 376.191,459.98 370.5,459.5C 366.687,458.213 362.687,457.213 358.5,456.5C 356.485,455.076 354.152,454.41 351.5,454.5C 348.848,454.59 346.515,453.924 344.5,452.5C 342.485,451.076 340.152,450.41 337.5,450.5C 332.969,446.514 327.636,444.014 321.5,443C 320.833,442 320.167,441 319.5,440C 316.204,438.489 312.871,437.323 309.5,436.5C 305.608,434.938 302.275,432.605 299.5,429.5C 296.399,426.067 292.732,423.4 288.5,421.5C 283.543,415.372 278.376,409.372 273,403.5C 272.153,401.807 271.32,400.14 270.5,398.5C 269.999,394.412 269.999,390.412 270.5,386.5C 271.398,385.842 272.398,385.176 273.5,384.5C 273.137,383.817 272.804,383.15 272.5,382.5C 272.5,380.833 272.5,379.167 272.5,377.5C 274.371,377.859 275.871,378.859 277,380.5C 277.49,379.207 277.657,377.873 277.5,376.5C 278.873,376.343 280.207,376.51 281.5,377C 285.061,380.073 288.728,382.906 292.5,385.5 Z"/></g>
<g><path style="opacity:1" fill="#d35b59" d="M 425.5,371.5 C 426.768,373.905 427.435,376.572 427.5,379.5C 425.96,377.162 425.294,374.495 425.5,371.5 Z"/></g>
<g><path style="opacity:1" fill="#da7473" d="M 272.5,377.5 C 272.5,379.167 272.5,380.833 272.5,382.5C 271.751,381.469 271.085,380.302 270.5,379C 271.044,378.283 271.711,377.783 272.5,377.5 Z"/></g>
<g><path style="opacity:1" fill="#e08988" d="M 175.5,380.5 C 175.5,381.5 175.5,382.5 175.5,383.5C 173.821,383.285 172.821,383.952 172.5,385.5C 165.022,389.068 157.355,392.401 149.5,395.5C 149.369,394.624 149.702,393.957 150.5,393.5C 158.917,389.359 167.25,385.025 175.5,380.5 Z"/></g>
<g><path style="opacity:1" fill="#d25853" d="M 256.5,381.5 C 255.522,384.478 253.522,386.478 250.5,387.5C 252.118,385.215 254.118,383.215 256.5,381.5 Z"/></g>
<g><path style="opacity:1" fill="#d25b59" d="M 297.5,385.5 C 296.957,385.56 296.624,385.893 296.5,386.5C 297.313,387.814 298.313,388.981 299.5,390C 299.272,390.399 298.938,390.565 298.5,390.5C 295.891,389.557 293.891,387.89 292.5,385.5C 294.194,385.446 295.86,385.446 297.5,385.5 Z"/></g>
<g><path style="opacity:1" fill="#eebebd" d="M 270.5,386.5 C 269.999,390.412 269.999,394.412 270.5,398.5C 269.273,396.368 268.273,394.034 267.5,391.5C 267.757,389.308 268.757,387.641 270.5,386.5 Z"/></g>
<g><path style="opacity:1" fill="#e49a9a" d="M 297.5,385.5 C 304.543,391.878 311.876,397.878 319.5,403.5C 311.698,400.434 304.698,396.101 298.5,390.5C 298.938,390.565 299.272,390.399 299.5,390C 298.313,388.981 297.313,387.814 296.5,386.5C 296.624,385.893 296.957,385.56 297.5,385.5 Z"/></g>
<g><path style="opacity:1" fill="#f3d1d0" d="M 172.5,385.5 C 161.258,393.286 148.925,398.619 135.5,401.5C 135.833,400.833 136.167,400.167 136.5,399.5C 136.833,399.5 137.167,399.5 137.5,399.5C 141.431,398.611 145.098,397.278 148.5,395.5C 148.833,395.5 149.167,395.5 149.5,395.5C 157.355,392.401 165.022,389.068 172.5,385.5 Z"/></g>
<g><path style="opacity:1" fill="#d66664" d="M 148.5,395.5 C 145.098,397.278 141.431,398.611 137.5,399.5C 140.626,397.01 144.292,395.677 148.5,395.5 Z"/></g>
<g><path style="opacity:1" fill="#e59c9a" d="M 136.5,399.5 C 136.167,400.167 135.833,400.833 135.5,401.5C 131.555,403.626 127.222,404.626 122.5,404.5C 127.25,403.249 131.917,401.582 136.5,399.5 Z"/></g>
<g><path style="opacity:1" fill="#ca3e39" d="M 68.5,408.5 C 65.1667,408.5 61.8333,408.5 58.5,408.5C 55.1766,407.638 51.6766,406.972 48,406.5C 46.0614,406.954 44.228,407.621 42.5,408.5C 40.5,408.5 38.5,408.5 36.5,408.5C 36.5,410.5 36.5,412.5 36.5,414.5C 35.5318,412.393 35.1984,410.059 35.5,407.5C 39.8906,407.766 44.0573,407.1 48,405.5C 55.0375,406.081 61.8708,407.081 68.5,408.5 Z"/></g>
<g><path style="opacity:1" fill="#d45e5d" d="M 450.5,409.5 C 445.55,408.706 440.55,408.706 435.5,409.5C 439.926,407.865 444.593,407.365 449.5,408C 450.056,408.383 450.389,408.883 450.5,409.5 Z"/></g>
<g><path style="opacity:1" fill="#efc1c0" d="M 122.5,404.5 C 120.821,405.94 118.821,406.94 116.5,407.5C 101.116,410.511 85.783,411.177 70.5,409.5C 79.1731,409.666 87.8397,409.5 96.5,409C 105.236,407.815 113.903,406.315 122.5,404.5 Z"/></g>
<g><path style="opacity:1" fill="#efc4c3" d="M 58.5,408.5 C 54.4862,408.334 50.4862,408.501 46.5,409C 45.6634,410.011 45.33,411.178 45.5,412.5C 42.6122,411.99 40.2789,412.656 38.5,414.5C 37.5489,413.081 37.2155,411.415 37.5,409.5C 39.4147,409.784 41.0813,409.451 42.5,408.5C 44.228,407.621 46.0614,406.954 48,406.5C 51.6766,406.972 55.1766,407.638 58.5,408.5 Z"/></g>
<g><path style="opacity:1" fill="#ebaeac" d="M 422.5,413.5 C 422.389,414.117 422.056,414.617 421.5,415C 411.624,417.161 401.624,417.994 391.5,417.5C 401.752,416.593 412.086,415.26 422.5,413.5 Z"/></g>
<g><path style="opacity:1" fill="#c83833" d="M 452.5,410.5 C 455.172,412.391 456.172,415.058 455.5,418.5C 457.167,418.5 458.833,418.5 460.5,418.5C 460.088,420.973 461.088,422.306 463.5,422.5C 463.5,422.833 463.5,423.167 463.5,423.5C 460.085,422.068 456.585,420.735 453,419.5C 452.502,416.518 452.335,413.518 452.5,410.5 Z"/></g>
<g><path style="opacity:1" fill="#dd8180" d="M 42.5,408.5 C 41.0813,409.451 39.4147,409.784 37.5,409.5C 37.2155,411.415 37.5489,413.081 38.5,414.5C 39.8118,417.145 41.8118,419.145 44.5,420.5C 41.0227,421.167 37.6893,421.834 34.5,422.5C 33.3582,424.374 32.0248,426.207 30.5,428C 32.3506,428.837 34.1839,429.671 36,430.5C 36.5281,431.816 36.0281,432.483 34.5,432.5C 33.216,430.386 31.216,429.386 28.5,429.5C 29.7566,426.496 31.4233,423.663 33.5,421C 35.8333,420.667 38.1667,420.333 40.5,420C 38.8981,418.358 37.5648,416.525 36.5,414.5C 36.5,412.5 36.5,410.5 36.5,408.5C 38.5,408.5 40.5,408.5 42.5,408.5 Z"/></g>
<g><path style="opacity:1" fill="#d86d6d" d="M 470.5,427.5 C 468.088,427.306 467.088,425.973 467.5,423.5C 466.167,423.5 464.833,423.5 463.5,423.5C 463.5,423.167 463.5,422.833 463.5,422.5C 466.635,420.977 469.968,420.31 473.5,420.5C 472.801,422.995 471.801,425.328 470.5,427.5 Z"/></g>
<g><path style="opacity:1" fill="#e08b8a" d="M 288.5,421.5 C 292.732,423.4 296.399,426.067 299.5,429.5C 295.268,427.6 291.601,424.933 288.5,421.5 Z"/></g>
<g><path style="opacity:1" fill="#eebbbb" d="M 450.5,409.5 C 451.492,409.328 452.158,409.662 452.5,410.5C 452.335,413.518 452.502,416.518 453,419.5C 456.585,420.735 460.085,422.068 463.5,423.5C 464.833,423.5 466.167,423.5 467.5,423.5C 467.088,425.973 468.088,427.306 470.5,427.5C 471.871,429.259 472.871,431.259 473.5,433.5C 472.167,436.493 470.167,438.827 467.5,440.5C 466.508,440.328 465.842,440.662 465.5,441.5C 464.957,441.44 464.624,441.107 464.5,440.5C 467.107,438.128 469.107,435.295 470.5,432C 470.472,430.93 470.139,430.097 469.5,429.5C 466.838,428.123 464.004,427.123 461,426.5C 457.985,424.401 454.819,422.401 451.5,420.5C 450.599,417.205 450.599,413.872 451.5,410.5C 446.156,410.334 440.823,410.501 435.5,411C 431.272,412.412 426.939,413.246 422.5,413.5C 426.439,411.219 430.772,409.886 435.5,409.5C 440.55,408.706 445.55,408.706 450.5,409.5 Z"/></g>
<g><path style="opacity:1" fill="#d35e5c" d="M 34.5,432.5 C 33.1667,434.5 33.1667,436.5 34.5,438.5C 30.6042,436.759 30.6042,434.759 34.5,432.5 Z"/></g>
<g><path style="opacity:1" fill="#f1caca" d="M 34.5,422.5 C 34.3215,428.436 37.3215,431.27 43.5,431C 44.2567,432.512 45.2567,433.846 46.5,435C 44.9238,435.44 43.5904,436.273 42.5,437.5C 40.6873,441.19 41.6873,443.524 45.5,444.5C 42.8333,444.5 40.1667,444.5 37.5,444.5C 37.9754,441.687 36.9754,439.687 34.5,438.5C 33.1667,436.5 33.1667,434.5 34.5,432.5C 36.0281,432.483 36.5281,431.816 36,430.5C 34.1839,429.671 32.3506,428.837 30.5,428C 32.0248,426.207 33.3582,424.374 34.5,422.5 Z"/></g>
<g><path style="opacity:1" fill="#f8e4e4" d="M 469.5,429.5 C 470.139,430.097 470.472,430.93 470.5,432C 469.107,435.295 467.107,438.128 464.5,440.5C 464.624,441.107 464.957,441.44 465.5,441.5C 467.017,444.013 468.683,446.513 470.5,449C 470.022,450.303 469.355,451.469 468.5,452.5C 464.509,455.838 459.842,457.838 454.5,458.5C 456.503,456.018 459.169,455.018 462.5,455.5C 462.343,454.127 462.51,452.793 463,451.5C 464.586,450.624 466.086,449.624 467.5,448.5C 465.973,446.807 464.64,444.973 463.5,443C 458.434,443.112 453.434,443.945 448.5,445.5C 446.259,444.929 444.592,443.596 443.5,441.5C 449.671,439.206 456.005,437.373 462.5,436C 464.5,435 466.5,434 468.5,433C 469.337,431.989 469.67,430.822 469.5,429.5 Z"/></g>
<g><path style="opacity:1" fill="#f4d1d0" d="M 309.5,436.5 C 312.871,437.323 316.204,438.489 319.5,440C 320.167,441 320.833,442 321.5,443C 327.636,444.014 332.969,446.514 337.5,450.5C 335.167,449.833 332.833,449.167 330.5,448.5C 328.967,446.755 326.967,445.755 324.5,445.5C 321.323,443.866 317.989,442.366 314.5,441C 312.76,439.483 311.094,437.983 309.5,436.5 Z"/></g>
<g><path style="opacity:1" fill="#d45e5d" d="M 37.5,444.5 C 40.1667,444.5 42.8333,444.5 45.5,444.5C 46.1481,446.086 46.6481,447.753 47,449.5C 48.6225,450.099 50.1225,450.766 51.5,451.5C 49.8008,451.66 48.1341,451.494 46.5,451C 45.1453,446.46 42.1453,444.293 37.5,444.5 Z"/></g>
<g><path style="opacity:1" fill="#edb9b8" d="M 45.5,444.5 C 46.4959,444.414 47.3292,444.748 48,445.5C 48.3095,446.766 48.8095,447.933 49.5,449C 56.3708,450.311 63.0375,451.811 69.5,453.5C 63.3687,453.621 57.3687,452.954 51.5,451.5C 50.1225,450.766 48.6225,450.099 47,449.5C 46.6481,447.753 46.1481,446.086 45.5,444.5 Z"/></g>
<g><path style="opacity:1" fill="#d76967" d="M 324.5,445.5 C 326.967,445.755 328.967,446.755 330.5,448.5C 328.033,448.245 326.033,447.245 324.5,445.5 Z"/></g>
<g><path style="opacity:1" fill="#d66765" d="M 465.5,441.5 C 465.842,440.662 466.508,440.328 467.5,440.5C 469.271,442.941 470.605,445.607 471.5,448.5C 471.89,450.982 470.89,452.315 468.5,452.5C 469.355,451.469 470.022,450.303 470.5,449C 468.683,446.513 467.017,444.013 465.5,441.5 Z"/></g>
<g><path style="opacity:1" fill="#f2c9c8" d="M 143.5,448.5 C 136.934,451.557 129.934,453.224 122.5,453.5C 123.058,452.21 124.058,451.377 125.5,451C 131.589,450.625 137.589,449.792 143.5,448.5 Z"/></g>
<g><path style="opacity:1" fill="#eaadac" d="M 337.5,450.5 C 340.152,450.41 342.485,451.076 344.5,452.5C 341.848,452.59 339.515,451.924 337.5,450.5 Z"/></g>
<g><path style="opacity:1" fill="#e59d9d" d="M 351.5,454.5 C 354.152,454.41 356.485,455.076 358.5,456.5C 355.848,456.59 353.515,455.924 351.5,454.5 Z"/></g>
<g><path style="opacity:1" fill="#cf4d49" d="M 358.5,456.5 C 362.687,457.213 366.687,458.213 370.5,459.5C 366.78,459.436 363.114,458.936 359.5,458C 358.944,457.617 358.611,457.117 358.5,456.5 Z"/></g>
<g><path style="opacity:1" fill="#ecb9b8" d="M 439.5,460.5 C 437.369,461.314 435.036,461.814 432.5,462C 417.328,462.828 402.328,462.661 387.5,461.5C 404.849,461.693 422.182,461.36 439.5,460.5 Z"/></g>
</svg>
