<?xml version="1.0" encoding="UTF-8" standalone="no"?>
<!-- Uploaded to: SVG Repo, www.svgrepo.com, Generator: SVG Repo Mixer Tools -->

<svg
   fill="#000000"
   height="800px"
   width="800px"
   version="1.1"
   id="Layer_1"
   viewBox="0 0 512.001 512.001"
   xml:space="preserve"
   sodipodi:docname="gear-stroke.svg"
   inkscape:version="1.3.2 (091e20e, 2023-11-25)"
   xmlns:inkscape="http://www.inkscape.org/namespaces/inkscape"
   xmlns:sodipodi="http://sodipodi.sourceforge.net/DTD/sodipodi-0.dtd"
   xmlns="http://www.w3.org/2000/svg"
   xmlns:svg="http://www.w3.org/2000/svg"><defs
   id="defs5">
	

		
	
			
			
			
		</defs><sodipodi:namedview
   id="namedview5"
   pagecolor="#ffffff"
   bordercolor="#000000"
   borderopacity="0.25"
   inkscape:showpageshadow="2"
   inkscape:pageopacity="0.0"
   inkscape:pagecheckerboard="0"
   inkscape:deskcolor="#d1d1d1"
   showgrid="false"
   inkscape:zoom="0.6204862"
   inkscape:cx="551.98649"
   inkscape:cy="404.52149"
   inkscape:window-width="872"
   inkscape:window-height="915"
   inkscape:window-x="860"
   inkscape:window-y="38"
   inkscape:window-maximized="0"
   inkscape:current-layer="Layer_1" />
<path
   d="m 496.14918,298.80968 -14.24123,-10.67779 c -10.21025,-7.6572 -16.0669,-19.36857 -16.0669,-32.13187 0,-12.7633 5.85665,-24.47466 16.06787,-32.13187 l 14.23929,-10.67778 c 2.86409,-2.14734 4.0445,-5.87983 2.93847,-9.28389 l -15.80609,-48.64409 c -1.10603,-3.40503 -4.25604,-5.72914 -7.83495,-5.7842 l -17.79694,-0.2695 c -7.54612,-0.11495 -14.83433,-2.299 -21.07737,-6.31838 -7.21664,-6.15751 -12.9815,-12.1282 -16.13452,-20.26403 -2.96358,-8.19235 -3.15774,-16.97684 -0.55833,-25.404876 l 5.24326,-17.008723 c 1.05484,-3.42145 -0.18353,-7.134621 -3.07949,-9.238493 L 380.66222,40.909481 c -2.895,-2.102906 -6.81005,-2.132851 -9.73789,-0.07245 l -14.55517,10.243097 c -10.43726,7.346166 -23.38506,9.296451 -35.52338,5.351448 -12.13832,-3.944037 -21.46665,-13.132299 -25.59325,-25.21073 l -5.75522,-16.842573 c -1.15819,-3.388606 -4.34202,-5.665387 -7.92188,-5.665387 h -51.14884 c -3.57986,0 -6.76369,2.276781 -7.92091,5.664421 l -5.75523,16.842573 c -4.1266,12.077465 -13.45493,21.265727 -25.59325,25.21073 -12.13928,3.944037 -25.08708,1.993753 -35.52434,-5.351448 L 141.07769,40.836068 c -2.92784,-2.060404 -6.84193,-2.031425 -9.73789,0.07341 l -41.381,30.062778 c -2.895964,2.103872 -4.134332,5.817043 -3.079497,9.238493 l 5.24326,17.009685 C 95.883066,109.41671 93.737657,122.3336 86.23597,132.6588 78.733317,142.984 67.111787,149.01549 54.351384,149.20869 l -17.796946,0.26853 c -3.579867,0.0531 -6.727949,2.37821 -7.834945,5.7842 l -15.806091,48.64506 c -1.106031,3.40502 0.07438,7.13655 2.938467,9.28389 l 14.241227,10.67778 c 10.210254,7.65721 16.066902,19.36857 16.066902,32.13187 0,12.7633 -5.856648,24.47467 -16.066902,32.13187 L 15.8538,298.80968 c -2.864087,2.14734 -4.046429,5.87983 -2.938466,9.28389 l 15.806091,48.64505 c 1.10603,3.40406 4.256043,5.72914 7.834945,5.78227 l 17.796946,0.2695 c 12.762335,0.1932 24.382898,6.22565 31.884586,16.55085 7.501687,10.32521 9.648062,23.2421 5.887559,35.43838 L 86.8822,431.78833 c -1.054834,3.42145 0.182568,7.13462 3.079498,9.2385 l 41.380032,30.0647 c 2.89596,2.10484 6.81102,2.13382 9.7379,0.0734 l 14.55516,-10.2431 c 10.43822,-7.3452 23.38796,-9.29548 35.52338,-5.35145 12.13929,3.94404 21.46665,13.1323 25.59325,25.21073 l 5.75522,16.84257 c 1.15723,3.38861 4.34202,5.66443 7.92092,5.66443 h 51.14883 c 3.58084,0 6.76369,-2.27678 7.92092,-5.66443 l 5.75522,-16.84257 c 4.1266,-12.0765 13.45493,-21.26573 25.59325,-25.2088 12.13832,-3.94403 25.08612,-1.99375 35.52434,5.35145 l 14.55517,10.2431 c 2.92784,2.0604 6.84097,2.03142 9.7379,-0.0725 l 41.38002,-30.06471 c 2.89597,-2.10387 4.13434,-5.81704 3.0795,-9.23849 l -5.24519,-17.00872 c -3.7605,-12.19724 -1.61413,-25.11413 5.88756,-35.43933 7.50265,-10.32521 19.12418,-16.3567 31.88458,-16.54989 l 17.79695,-0.2695 c 3.57987,-0.0531 6.72795,-2.37821 7.83494,-5.78227 l 15.8061,-48.64505 c 1.10603,-3.40696 -0.0744,-7.13849 -2.93847,-9.28679 z"
   id="path2"
   style="fill:none;stroke:#db5e0b;stroke-width:3.20000625;stroke-dasharray:none;stroke-opacity:1"
   sodipodi:nodetypes="ccssccccccccccccccccssccccccccccccccccsccccccscccccccccsscsccccccccscccc" />
<circle
   style="opacity:0.935028;fill:none;fill-opacity:1;stroke:#db5e0b;stroke-width:3.20000625;stroke-linecap:round;stroke-linejoin:round;stroke-dasharray:none;stroke-opacity:1"
   id="path5"
   cx="256.00049"
   cy="256.00049"
   r="160.89818" /></svg>
