<svg xmlns="http://www.w3.org/2000/svg" version="1.1" viewBox="1.634705901145935 1.1998987197875977 372.4325256347656 446.2801513671875" width="375.00" height="449.00">
<path fill="#0d1e25" d="&#10;  M 316.76 90.37&#10;  A 1.06 1.06 0.0 0 0 315.44 89.31&#10;  Q 312.80 89.98 310.37 90.89&#10;  Q 295.42 96.45 281.26 102.02&#10;  Q 270.08 106.42 262.93 110.16&#10;  Q 258.21 112.64 244.10 122.87&#10;  Q 240.38 125.56 231.47 130.73&#10;  Q 217.31 138.94 201.25 142.24&#10;  C 177.34 147.16 153.34 137.71 133.92 124.48&#10;  Q 127.49 120.10 117.88 113.12&#10;  C 109.94 107.36 100.79 104.25 89.08 99.85&#10;  Q 59.71 88.81 11.33 70.45&#10;  Q 9.04 69.58 11.32 68.68&#10;  Q 41.86 56.69 78.07 43.01&#10;  Q 105.37 32.69 186.00 1.73&#10;  C 187.84 1.02 188.73 1.01 190.74 1.78&#10;  Q 337.04 58.09 359.45 66.63&#10;  Q 363.47 68.15 364.96 68.84&#10;  Q 366.54 69.58 364.91 70.20&#10;  L 332.80 82.46&#10;  A 2.60 2.60 0.0 0 0 331.13 84.89&#10;  L 331.13 129.89&#10;  A 0.57 0.57 0.0 0 0 331.44 130.40&#10;  C 338.94 134.25 340.96 140.70 341.09 149.24&#10;  Q 341.31 163.82 341.27 187.38&#10;  A 1.15 1.15 0.0 0 1 340.12 188.53&#10;  L 308.26 188.53&#10;  Q 307.00 188.53 307.00 187.27&#10;  Q 307.10 161.32 307.37 147.96&#10;  Q 307.53 140.17 312.17 134.05&#10;  Q 312.23 133.96 314.58 131.72&#10;  C 316.58 129.81 316.35 127.92 316.35 125.24&#10;  Q 316.39 105.92 316.76 90.37&#10;  Z"/>
<path fill="#0d1e25" d="&#10;  M 188.15 317.74&#10;  Q 187.17 317.74 185.05 317.05&#10;  Q 157.18 308.02 135.30 290.90&#10;  C 107.75 269.33 91.89 236.56 89.66 202.01&#10;  Q 87.31 165.56 102.85 133.04&#10;  Q 103.34 132.00 104.22 130.89&#10;  A 0.83 0.83 0.0 0 1 105.41 130.77&#10;  C 128.55 150.28 156.96 165.59 187.97 165.55&#10;  C 218.98 165.51 247.35 150.14 270.45 130.58&#10;  A 0.83 0.83 0.0 0 1 271.64 130.69&#10;  Q 272.52 131.80 273.02 132.84&#10;  Q 288.63 165.32 286.37 201.78&#10;  C 284.22 236.33 268.44 269.14 240.94 290.77&#10;  Q 219.10 307.95 191.25 317.05&#10;  Q 189.13 317.74 188.15 317.74&#10;  Z"/>
<path fill="#0d1e25" d="&#10;  M 80.23 255.55&#10;  Q 88.35 274.08 105.15 293.24&#10;  A 1.96 1.96 0.0 0 1 105.42 295.44&#10;  C 86.54 331.86 77.61 373.92 76.38 414.52&#10;  Q 75.93 429.14 76.09 446.13&#10;  A 1.34 1.34 0.0 0 1 74.75 447.48&#10;  L 3.00 447.48&#10;  Q 1.64 447.48 1.64 446.12&#10;  Q 1.61 431.56 1.75 398.53&#10;  Q 1.92 362.13 14.99 328.55&#10;  C 27.15 297.32 48.40 270.79 77.03 252.98&#10;  A 1.65 1.65 0.0 0 1 79.41 253.70&#10;  Q 79.83 254.64 80.23 255.55&#10;  Z"/>
<path fill="#0d1e25" d="&#10;  M 299.71 443.35&#10;  Q 301.21 395.04 290.72 349.65&#10;  Q 286.33 330.62 278.18 310.77&#10;  Q 274.74 302.39 270.55 295.41&#10;  A 1.52 1.50 51.0 0 1 270.73 293.60&#10;  Q 286.82 276.27 296.70 254.37&#10;  Q 297.34 252.95 298.84 253.41&#10;  Q 300.59 253.95 301.94 254.81&#10;  C 334.78 275.66 357.45 309.39 367.16 346.51&#10;  Q 373.83 372.04 374.00 398.54&#10;  Q 374.11 416.01 374.04 446.12&#10;  A 1.34 1.34 0.0 0 1 372.70 447.46&#10;  L 300.94 447.46&#10;  A 1.23 1.22 89.3 0 1 299.72 446.26&#10;  Q 299.67 444.61 299.71 443.35&#10;  Z"/>
<path fill="#0d1e25" d="&#10;  M 188.07 341.20&#10;  Q 189.52 341.20 190.94 340.81&#10;  Q 216.28 333.75 238.34 320.20&#10;  C 242.39 317.72 247.91 313.67 252.49 310.97&#10;  A 0.93 0.93 0.0 0 1 253.80 311.37&#10;  C 273.94 353.75 278.46 399.85 277.37 446.81&#10;  A 0.67 0.67 0.0 0 1 276.70 447.46&#10;  Q 232.16 447.42 188.02 447.40&#10;  Q 143.87 447.38 99.33 447.37&#10;  A 0.67 0.67 0.0 0 1 98.66 446.72&#10;  C 97.62 399.76 102.19 353.66 122.37 311.30&#10;  A 0.93 0.93 0.0 0 1 123.68 310.90&#10;  C 128.26 313.61 133.78 317.66 137.82 320.15&#10;  Q 159.87 333.72 185.20 340.80&#10;  Q 186.62 341.20 188.07 341.20&#10;  Z"/>
</svg>