<svg xmlns="http://www.w3.org/2000/svg" version="1.1" xmlns:xlink="http://www.w3.org/1999/xlink" xmlns:svgjs="http://svgjs.dev/svgjs" width="1440" height="560" preserveAspectRatio="none" viewBox="0 0 1440 560"><g mask="url(&quot;#SvgjsMask1011&quot;)" fill="none"><path d="M296.9 623.71C427.38 618.69 531.73 407.57 772.18 407.14 1012.62 406.71 1009.81 477.14 1247.45 477.14 1485.09 477.14 1602.63 407.33 1722.73 407.14" stroke="rgba(219, 94, 11, 1)" stroke-width="2"></path><path d="M811.56 610.3C949.78 583.92 981.27 256.84 1229.7 233.52 1478.13 210.2 1535.23 68.62 1647.84 65.52" stroke="rgba(219, 94, 11, 1)" stroke-width="2"></path><path d="M490.72 598.59C638.12 588.68 723.42 317.4 1004.75 307.1 1286.09 296.8 1383.61 141.21 1518.79 139.1" stroke="rgba(219, 94, 11, 1)" stroke-width="2"></path><path d="M257.61 619.94C373.52 613.28 459.25 402.29 667.53 401.7 875.82 401.11 872.49 471.7 1077.46 471.7 1282.42 471.7 1383.42 401.95 1487.38 401.7" stroke="rgba(219, 94, 11, 1)" stroke-width="2"></path><path d="M319.14 603.2C481.28 599.18 597.32 378.88 924.26 369.32 1251.21 359.76 1364.51 111.74 1529.39 106.12" stroke="rgba(219, 94, 11, 1)" stroke-width="2"></path></g><defs><mask id="SvgjsMask1011"><rect width="1440" height="560" fill="#ffffff"></rect></mask></defs></svg>