<?xml version="1.0" encoding="UTF-8" standalone="no"?>
<svg
   viewBox="0 0 1024 1024"
   id="vector"
   version="1.1"
   sodipodi:docname="iron-journal-logo-proto.svg"
   inkscape:version="1.3.2 (091e20e, 2023-11-25)"
   xmlns:inkscape="http://www.inkscape.org/namespaces/inkscape"
   xmlns:sodipodi="http://sodipodi.sourceforge.net/DTD/sodipodi-0.dtd"
   xmlns="http://www.w3.org/2000/svg"
   xmlns:svg="http://www.w3.org/2000/svg">
  <defs
     id="defs1" />
  <sodipodi:namedview
     id="namedview1"
     pagecolor="#ffffff"
     bordercolor="#000000"
     borderopacity="0.25"
     inkscape:showpageshadow="2"
     inkscape:pageopacity="0.0"
     inkscape:pagecheckerboard="0"
     inkscape:deskcolor="#d1d1d1"
     inkscape:zoom="0.23046875"
     inkscape:cx="512"
     inkscape:cy="512"
     inkscape:window-width="1312"
     inkscape:window-height="449"
     inkscape:window-x="0"
     inkscape:window-y="38"
     inkscape:window-maximized="0"
     inkscape:current-layer="vector" />
  <path
     id="path"
     d="M 867.5 257.7 L 867.5 257.7 C 873 257.7 877.5 265.5 877.5 275.1 L 877.5 690.4 C 877.5 700 873 707.7 867.5 707.7 L 867.5 707.7 C 861.9 707.7 857.5 700 857.5 690.4 L 857.5 275.1 C 857.5 265.5 861.9 257.7 867.5 257.7 Z"
     fill="#ffffff"
     stroke="#00000000"
     style="fill:#008000" />
  <path
     id="path_1"
     d="M 905 296 L 905 296 C 909.7 296 913.5 303.3 913.5 312.4 L 913.5 653.7 C 913.5 662.8 909.7 670.1 905 670.1 L 905 670.1 C 900.3 670.1 896.5 662.8 896.5 653.7 L 896.5 312.4 C 896.5 303.3 900.3 296 905 296 Z"
     fill="#ffffff"
     stroke="#00000000"
     style="fill:#008000" />
  <path
     id="path_2"
     d="M 958.8 483 C 958.8 476.1 953.2 470.5 946.3 470.5 C 939.4 470.5 933.8 476.1 933.8 483 C 933.8 489.9 939.4 495.5 946.3 495.5 C 953.2 495.5 958.8 489.9 958.8 483 Z"
     fill="#ffffff"
     stroke="#00000000"
     style="fill:#008000" />
  <path
     id="path_3"
     d="M 149.5 257.7 L 149.5 257.7 C 144 257.7 139.5 265.5 139.5 275.1 L 139.5 690.4 C 139.5 700 144 707.7 149.5 707.7 L 149.5 707.7 C 155.1 707.7 159.5 700 159.5 690.4 L 159.5 275.1 C 159.5 265.5 155.1 257.7 149.5 257.7 Z"
     fill="#ffffff"
     stroke="#00000000"
     style="fill:#008000" />
  <path
     id="path_4"
     d="M 115 296 L 115 296 C 110.3 296 106.5 303.3 106.5 312.4 L 106.5 653.7 C 106.5 662.8 110.3 670.1 115 670.1 L 115 670.1 C 119.7 670.1 123.5 662.8 123.5 653.7 L 123.5 312.4 C 123.5 303.3 119.7 296 115 296 Z"
     fill="#ffffff"
     stroke="#00000000"
     style="fill:#008000" />
  <path
     id="path_5"
     d="M 65.2 483 C 65.2 476.1 70.8 470.5 77.7 470.5 C 84.6 470.5 90.2 476.1 90.2 483 C 90.2 489.9 84.6 495.5 77.7 495.5 C 70.8 495.5 65.2 489.9 65.2 483 Z"
     fill="#ffffff"
     stroke="#00000000"
     style="fill:#008000" />
  <path
     id="path_6"
     d="M 201 474.6 L 813 474.6 C 819.6 474.6 825 477.9 825 482 L 825 482.1 C 825 486.2 819.6 489.6 813 489.6 L 201 489.6 C 194.4 489.6 189 486.2 189 482.1 L 189 482 C 189 477.9 194.4 474.6 201 474.6 Z"
     fill="#ffffff"
     stroke="#00000000"
     style="fill:#008000" />
  <path
     id="path_7"
     d="M 244.8 537 L 265.6 537 L 265.6 616.3 C 265.6 629.1 264.3 638.7 261.7 644.9 C 259.1 651.2 255.3 656 250.2 659.4 C 245.1 662.7 238.8 664.4 231.4 664.4 C 221.5 664.4 213.8 661 208.2 654.2 C 202.6 647.5 199.8 637.2 199.8 623.6 L 219.3 620.8 C 219.6 628.2 220.5 633.4 222.1 636.5 C 224.4 640.7 227.7 642.8 232.1 642.8 C 236.5 642.8 239.7 641.3 241.7 638.2 C 243.8 635.2 244.8 628.4 244.8 617.9 L 244.8 537 Z"
     fill="#ffffff"
     stroke="#00000000"
     style="fill:#008000" />
  <path
     id="path_8"
     d="M 273.4 600.4 C 273.4 585.5 275.6 573.2 280 563.5 C 284.4 553.9 290.2 546.7 297.3 542 C 304.5 537.2 313.1 534.9 323.2 534.9 C 337.9 534.9 349.9 540.5 359.2 551.7 C 368.4 562.9 373 578.9 373 599.6 C 373 620.6 368.1 637 358.3 648.8 C 349.7 659.2 338.1 664.4 323.3 664.4 C 308.4 664.4 296.7 659.2 288.1 648.9 C 278.3 637.1 273.4 621 273.4 600.4 Z M 294.8 599.5 C 294.8 614 297.5 624.8 303 632 C 308.4 639.2 315.2 642.8 323.3 642.8 C 331.5 642.8 338.2 639.2 343.6 632.1 C 348.9 624.9 351.6 613.9 351.6 599.1 C 351.6 584.6 349 573.9 343.8 566.9 C 338.6 560 331.7 556.5 323.3 556.5 C 314.9 556.5 308 560 302.7 567 C 297.4 574 294.8 584.8 294.8 599.5 Z"
     fill="#ffffff"
     stroke="#00000000"
     style="fill:#008000" />
  <path
     id="path_9"
     d="M 379 537 L 399.7 537 L 399.7 604.8 C 399.7 615.4 400 622.2 400.5 625.4 C 401.4 631 403.6 635.2 407 638.3 C 410.5 641.3 415 642.8 420.6 642.8 C 425.4 642.8 429.3 641.7 432.3 639.6 C 435.4 637.4 437.4 634.5 438.5 630.7 C 439.7 626.9 440.2 618.8 440.2 606.3 L 440.2 537 L 461 537 L 461 602.8 C 461 619.6 460.1 631.7 458.3 639.2 C 456.5 646.7 452.4 652.8 446.1 657.4 C 439.9 662.1 431.5 664.4 421.2 664.4 C 410.5 664.4 402.2 662.5 396.2 658.6 C 390.1 654.8 385.8 649.4 383.1 642.4 C 380.4 635.4 379 622.6 379 603.8 L 379 537 Z"
     fill="#ffffff"
     stroke="#00000000"
     style="fill:#008000" />
  <path
     id="path_10"
     d="M 472.8 662.3 L 472.8 537 L 516.5 537 C 527.7 537 535.7 538.1 540.4 540.4 C 545.2 542.6 549.2 546.5 552.2 552.1 C 555.3 557.6 556.8 564.3 556.8 572 C 556.8 581.8 554.5 589.7 549.8 595.7 C 545.1 601.7 538.4 605.4 529.8 607 C 534.2 610.2 537.9 613.7 540.8 617.4 C 543.7 621.2 547.6 628 552.7 637.8 L 565.1 662.3 L 540.4 662.3 L 525.4 635 C 520 625.2 516.3 619 514.4 616.5 C 512.4 614 510.4 612.3 508.2 611.4 C 506.1 610.4 502.6 610 497.8 610 L 493.5 610 L 493.5 662.3 L 472.8 662.3 Z M 493.5 590 L 508.9 590 C 518.3 590 524.3 589.6 526.8 588.7 C 529.4 587.9 531.5 586.2 533.1 583.7 C 534.7 581.2 535.5 577.9 535.5 573.7 C 535.5 569.8 534.7 566.5 533.1 564.1 C 531.5 561.7 529.3 560 526.6 559.1 C 524.7 558.5 519 558.2 509.8 558.2 L 493.5 558.2 L 493.5 590 Z"
     fill="#ffffff"
     stroke="#00000000"
     style="fill:#008000" />
  <path
     id="path_11"
     d="M 566.6 662.3 L 566.6 537 L 586.7 537 L 628.8 620.7 L 628.8 537 L 648.1 537 L 648.1 662.3 L 627.3 662.3 L 585.9 580.6 L 585.9 662.3 L 566.6 662.3 Z"
     fill="#ffffff"
     stroke="#00000000"
     style="fill:#008000" />
  <path
     id="path_12"
     d="M 752.5 662.3 L 730 662.3 L 721 633.8 L 680 633.8 L 671.5 662.3 L 649.5 662.3 L 689.5 537 L 711.4 537 L 752.5 662.3 Z M 714.3 612.7 L 700.2 566.2 L 686.3 612.7 L 714.3 612.7 Z"
     fill="#ffffff"
     stroke="#00000000"
     style="fill:#008000" />
  <path
     id="path_13"
     d="M 754.1 662.3 L 754.1 538 L 774.7 538 L 774.7 641.2 L 826.3 641.2 L 826.3 662.3 L 754.1 662.3 Z"
     fill="#ffffff"
     stroke="#00000000"
     style="fill:#008000" />
  <path
     id="path_14"
     d="M 357.2 431.8 L 357.2 306.6 L 377.9 306.6 L 377.9 431.8 L 357.2 431.8 Z"
     fill="#ffffff"
     stroke="#00000000"
     style="fill:#008000" />
  <path
     id="path_15"
     d="M 387.8 431.8 L 387.8 306.6 L 431.5 306.6 C 442.6 306.6 450.6 307.7 455.4 309.9 C 460.2 312.2 464.1 316.1 467.2 321.6 C 470.2 327.2 471.8 333.8 471.8 341.6 C 471.8 351.4 469.4 359.3 464.7 365.3 C 460 371.2 453.4 375 444.7 376.5 C 449.1 379.7 452.8 383.2 455.7 387 C 458.6 390.8 462.6 397.6 467.6 407.4 L 480.1 431.8 L 455.4 431.8 L 440.3 404.6 C 434.9 394.7 431.3 388.5 429.3 386.1 C 427.4 383.6 425.3 381.9 423.2 380.9 C 421 380 417.5 379.5 412.7 379.5 L 408.5 379.5 L 408.5 431.8 L 387.8 431.8 Z M 408.5 359.5 L 423.8 359.5 C 433.2 359.5 439.2 359.1 441.8 358.3 C 444.4 357.5 446.4 355.8 448 353.3 C 449.6 350.8 450.4 347.5 450.4 343.3 C 450.4 339.3 449.6 336.1 448 333.7 C 446.4 331.3 444.3 329.6 441.5 328.7 C 439.6 328.1 434 327.7 424.7 327.7 L 408.5 327.7 L 408.5 359.5 Z"
     fill="#ffffff"
     stroke="#00000000"
     style="fill:#008000" />
  <path
     id="path_16"
     d="M 477.2 370 C 477.2 355 479.4 342.7 483.8 333.1 C 488.2 323.4 494 316.2 501.1 311.5 C 508.2 306.8 516.8 304.4 527 304.4 C 541.7 304.4 553.7 310 562.9 321.3 C 572.2 332.5 576.8 348.5 576.8 369.2 C 576.8 390.2 571.9 406.5 562.1 418.3 C 553.5 428.7 541.8 434 527.1 434 C 512.2 434 500.5 428.8 491.9 418.5 C 482.1 406.7 477.2 390.5 477.2 370 Z M 498.5 369.1 C 498.5 383.5 501.3 394.3 506.7 401.5 C 512.2 408.7 519 412.3 527.1 412.3 C 535.2 412.3 542 408.8 547.3 401.6 C 552.7 394.5 555.4 383.5 555.4 368.7 C 555.4 354.2 552.7 343.4 547.5 336.5 C 542.3 329.5 535.5 326 527.1 326 C 518.6 326 511.8 329.5 506.5 336.5 C 501.2 343.6 498.5 354.4 498.5 369.1 Z"
     fill="#ffffff"
     stroke="#00000000"
     style="fill:#008000" />
  <path
     id="path_17"
     d="M 583.2 431.8 L 583.2 306.6 L 603.4 306.6 L 645.4 390.2 L 645.4 306.6 L 664.7 306.6 L 664.7 431.8 L 643.9 431.8 L 602.5 350.1 L 602.5 431.8 L 583.2 431.8 Z"
     fill="#ffffff"
     stroke="#00000000"
     style="fill:#008000" />
</svg>
