<svg data-v-423bf9ae="" xmlns="http://www.w3.org/2000/svg" viewBox="0 0 127.59184760205386 163" class="iconAbove"><!----><!----><!----><g data-v-423bf9ae="" id="9e06cbf1-0dd7-4b6c-aa59-c3f7e7ce7879" fill="white" transform="matrix(6.122449456230433,0,0,6.122449456230433,-5.679947037151578e-7,91.18366999499045)"><path d="M3.49 7.57L3.49 1.94L5.37 1.94L5.37 5.15L5.18 5.15L5.18 8.65L5.37 8.65L5.37 11.46L0.86 11.46L0.86 10.86L0 10.86L0 9.75L0.52 9.75L0.52 9.56L0 9.56L0 9.31L1.85 9.31L1.85 9.99L3.51 9.99L3.51 9.05Q3.51 8.57 3.49 7.72L3.49 7.72L2.04 7.72L2.04 7.57L3.49 7.57ZM4.06 7.57L3.51 7.57L3.51 7.72L4.06 7.72L4.06 7.57ZM1.90 11.73L1.90 11.60L4.30 11.60L4.30 11.73L1.90 11.73ZM9.25 7.57L9.25 1.94L11.13 1.94L11.13 5.15L10.94 5.15L10.94 8.65L11.13 8.65L11.13 11.46L6.62 11.46L6.62 10.86L5.76 10.86L5.76 9.75L6.28 9.75L6.28 9.56L5.76 9.56L5.76 9.31L7.61 9.31L7.61 9.99L9.26 9.99L9.26 9.05Q9.26 8.57 9.25 7.72L9.25 7.72L7.80 7.72L7.80 7.57L9.25 7.57ZM9.82 7.57L9.26 7.57L9.26 7.72L9.82 7.72L9.82 7.57ZM7.66 11.73L7.66 11.60L10.06 11.60L10.06 11.73L7.66 11.73ZM11.66 9.37L11.66 1.93L13.85 1.93Q14.21 3.25 15.34 7.21L15.34 7.21L16.20 7.21Q16.24 7.21 16.48 6.26L16.48 6.26Q17.03 4.40 17.71 1.93L17.71 1.93L19.73 1.93L19.73 8.29L19.84 8.29L19.84 9.45L19.23 9.45L19.23 9.66L19.84 9.66L19.84 11.73L18.12 11.73L18.12 10.97L18.33 10.97L18.33 8.62L17.97 8.62L17.97 7.44L17.75 7.44L17.74 7.51L17.55 7.51L17.55 9.18L16.96 9.18L16.96 9.96L16.45 9.96L16.45 11.29L15.24 11.29L15.24 10.44L14.49 10.44L14.49 9.28L14.05 9.28L14.05 8.07L13.79 8.07Q13.78 7.97 13.63 7.44L13.63 7.44L15.37 7.44L15.32 7.21L13.58 7.21L13.63 7.44L13.40 7.44L13.40 8.96L13.51 8.96L13.51 10.64L13.08 10.64L13.08 10.94L13.51 10.94L13.51 11.38L11.96 11.38L11.96 9.37L11.66 9.37ZM13.40 6.51L13.38 6.51L13.38 6.63Q13.38 6.78 13.40 7.21L13.40 7.21L13.56 7.21Q13.40 6.55 13.40 6.51L13.40 6.51ZM17.99 6.53L17.97 6.53L17.82 7.21L17.97 7.21Q17.99 6.79 17.99 6.60L17.99 6.60L17.99 6.53ZM13.38 7.21L12.84 7.21L12.84 7.44L13.38 7.44L13.38 7.21ZM17.81 7.21L16.23 7.21L16.18 7.44L17.74 7.44Q17.81 7.26 17.81 7.21L17.81 7.21ZM19.18 7.21L17.99 7.21L17.99 7.44L19.18 7.44L19.18 7.21ZM16.15 7.44L15.40 7.44Q15.52 7.97 15.55 7.97L15.55 7.97L15.75 7.97L15.75 8.85L16.06 8.85L16.06 7.49L16.15 7.49L16.15 7.44ZM19.84 9.66L19.84 9.45L20.84 9.45L20.84 9.66L19.84 9.66ZM19.94 10.12L19.94 9.74L20.02 9.74L20.02 9.89L20.16 9.89L20.16 9.78Q20.16 9.74 20.19 9.74L20.19 9.74L20.22 9.74Q20.25 9.75 20.25 9.78L20.25 9.78L20.25 10.09Q20.25 10.12 20.22 10.12L20.22 10.12L20.16 10.12L20.16 9.97L20.02 9.97L20.02 10.12L19.94 10.12ZM19.94 10.62L19.94 10.24L20.17 10.24Q20.21 10.25 20.21 10.27L20.21 10.27L20.21 10.32L20.02 10.32L20.02 10.39L20.17 10.39L20.17 10.47L20.02 10.47L20.02 10.62L19.94 10.62ZM19.96 10.74L19.96 10.74L20.19 10.74Q20.22 10.74 20.22 10.77L20.22 10.77L20.22 10.80L20.04 11.03L20.22 11.03L20.22 11.12L19.94 11.12Q19.91 11.12 19.91 11.07L19.91 11.07Q19.96 10.99 20.09 10.82L20.09 10.82L19.93 10.82L19.93 10.77Q19.93 10.74 19.96 10.74ZM19.94 11.53L19.94 11.23L20.02 11.23L20.02 11.45L20.04 11.53L20.13 11.53Q20.16 11.53 20.16 11.50L20.16 11.50L20.16 11.27Q20.16 11.23 20.19 11.23L20.19 11.23L20.22 11.23Q20.25 11.24 20.25 11.27L20.25 11.27L20.25 11.46Q20.25 11.61 20.10 11.61L20.10 11.61L20.08 11.61Q19.98 11.61 19.94 11.53L19.94 11.53ZM11.51 11.61L11.51 11.46L13.27 11.46L13.27 11.61L11.51 11.61Z"></path></g><!----><g data-v-423bf9ae="" id="c839527c-7e5c-4343-b4d3-645b3a334b1a" transform="matrix(2.8125,0,0,2.8125,19,0)" stroke="none" fill="white"><path d="M15.965 16.258l.707-.707 10.39 10.39-.707.707z"></path><path d="M4.935 26.357L26.018 5.274l.707.707L5.642 27.065z"></path><path d="M31 1v4.194h-4.194V1H31m1-1h-6.194v6.194H32V0zM31 26.806V31h-4.194v-4.194H31m1-1h-6.194V32H32v-6.194zM5.194 26.806V31H1v-4.194h4.194m1-1H0V32h6.194v-6.194z"></path></g><!----></svg>