<svg xmlns="http://www.w3.org/2000/svg" version="1.1" viewBox="0.7655234336853027 0.8407174348831177 639.1172485351562 638.9524536132812" width="641.00" height="640.00">
<path fill="#21201e" d="&#10;  M 284.67 161.45&#10;  Q 284.13 160.66 279.79 151.02&#10;  Q 277.13 145.10 274.86 140.74&#10;  Q 264.63 121.02 254.87 101.53&#10;  C 243.38 78.59 234.81 61.25 227.44 39.35&#10;  C 226.02 35.14 227.52 34.62 230.62 31.62&#10;  C 243.13 19.55 251.71 10.49 262.65 1.01&#10;  A 0.70 0.70 0.0 0 1 263.76 1.29&#10;  C 273.07 25.69 284.56 50.28 297.09 75.31&#10;  Q 307.54 96.20 311.52 104.44&#10;  A 4.56 4.54 -44.9 0 1 311.50 108.46&#10;  L 285.21 161.42&#10;  A 0.31 0.31 0.0 0 1 284.67 161.45&#10;  Z"/>
<path fill="#21201e" d="&#10;  M 437.66 308.80&#10;  Q 424.07 306.66 412.77 308.08&#10;  Q 394.03 310.45 376.02 318.03&#10;  C 369.12 320.94 361.44 325.27 356.53 331.04&#10;  Q 354.97 332.87 354.14 336.16&#10;  Q 351.98 344.77 351.17 354.31&#10;  Q 351.06 355.59 349.85 355.19&#10;  C 339.22 351.73 327.84 351.43 316.26 351.93&#10;  C 308.33 352.28 300.14 354.74 294.65 360.46&#10;  Q 293.80 361.35 292.58 361.19&#10;  L 287.28 360.49&#10;  A 1.38 1.37 -84.2 0 1 286.09 359.03&#10;  Q 286.77 349.32 287.02 343.53&#10;  C 287.75 326.66 288.57 314.41 286.84 299.80&#10;  Q 285.02 284.55 282.89 273.04&#10;  Q 280.35 259.36 279.59 249.95&#10;  C 277.79 227.63 282.68 206.39 291.45 185.45&#10;  Q 296.52 173.35 305.21 155.42&#10;  Q 347.81 67.58 355.49 50.97&#10;  Q 366.68 26.79 376.31 1.51&#10;  A 0.79 0.79 0.0 0 1 377.45 1.11&#10;  Q 378.11 1.49 378.81 2.19&#10;  C 389.84 13.23 404.10 25.91 412.37 34.94&#10;  Q 413.50 36.17 412.64 38.64&#10;  Q 405.29 59.88 395.42 80.65&#10;  C 383.75 105.21 363.49 143.98 347.78 177.52&#10;  C 340.10 193.94 333.64 210.92 331.12 228.38&#10;  C 330.19 234.84 329.59 240.17 330.86 246.50&#10;  Q 332.81 256.21 337.88 265.36&#10;  C 340.19 269.53 343.18 269.64 346.60 266.73&#10;  Q 350.33 263.58 351.64 262.13&#10;  Q 373.87 237.58 387.00 211.79&#10;  Q 404.59 177.24 407.25 138.00&#10;  C 407.44 135.27 407.08 132.02 407.24 129.02&#10;  A 0.58 0.57 0.4 0 0 406.64 128.42&#10;  Q 406.13 128.44 405.97 128.99&#10;  Q 400.71 147.62 399.45 151.75&#10;  Q 394.78 167.03 387.40 182.69&#10;  C 384.25 189.37 380.28 197.32 374.17 201.39&#10;  C 369.88 204.26 366.00 201.83 365.60 196.87&#10;  Q 365.05 189.94 365.32 183.00&#10;  C 365.45 179.54 365.96 176.45 367.33 173.07&#10;  Q 372.36 160.73 376.66 152.17&#10;  Q 396.29 113.09 411.47 81.61&#10;  C 417.48 69.17 421.54 59.06 425.61 47.25&#10;  A 1.79 1.79 0.0 0 1 427.75 46.09&#10;  Q 455.58 53.21 481.37 65.39&#10;  Q 524.38 85.72 550.33 124.39&#10;  Q 554.04 129.92 560.69 141.62&#10;  Q 600.91 212.43 638.21 274.39&#10;  C 642.06 280.78 638.86 288.23 632.73 292.01&#10;  Q 590.99 317.74 548.20 342.68&#10;  C 542.03 346.27 534.37 348.16 529.84 341.62&#10;  Q 527.46 338.18 524.26 332.85&#10;  Q 507.79 305.41 502.73 297.20&#10;  Q 489.44 275.58 479.66 258.84&#10;  A 1.19 1.18 41.6 0 0 477.55 258.96&#10;  Q 454.44 311.52 450.80 319.80&#10;  C 449.62 322.48 448.29 324.43 445.54 325.86&#10;  Q 429.70 334.14 413.60 341.28&#10;  A 1.10 1.09 64.2 0 1 412.19 340.78&#10;  C 408.56 333.81 406.06 326.47 406.47 318.51&#10;  Q 406.69 314.24 410.74 313.02&#10;  Q 412.98 312.34 419.26 311.07&#10;  C 424.99 309.91 432.05 309.87 437.65 309.18&#10;  Q 438.99 309.01 437.66 308.80&#10;  Z&#10;  M 422.70 196.73&#10;  Q 422.27 196.47 422.29 195.24&#10;  Q 422.35 191.16 423.54 175.50&#10;  C 424.32 165.27 424.13 153.15 421.59 142.42&#10;  Q 420.88 139.43 420.42 142.46&#10;  C 420.00 145.26 420.08 148.71 419.38 151.86&#10;  C 418.41 156.22 417.84 161.47 417.19 165.06&#10;  C 411.20 197.96 397.89 229.30 381.25 258.38&#10;  C 375.55 268.33 370.87 276.29 367.52 283.80&#10;  Q 365.11 289.21 365.10 292.40&#10;  C 365.09 299.25 372.23 297.61 376.59 296.06&#10;  Q 386.45 292.57 396.97 287.70&#10;  Q 424.18 275.12 447.76 260.35&#10;  C 460.46 252.40 470.91 244.08 479.84 233.37&#10;  Q 481.27 231.65 482.24 229.40&#10;  Q 483.36 226.77 480.79 228.02&#10;  Q 479.68 228.56 478.67 229.44&#10;  C 470.43 236.67 461.60 243.21 450.88 247.87&#10;  Q 448.77 248.79 446.41 248.66&#10;  A 1.47 1.46 -87.4 0 1 445.03 247.14&#10;  Q 445.06 246.41 445.29 244.76&#10;  C 447.21 231.47 453.51 212.78 454.55 196.09&#10;  Q 454.78 192.40 453.45 195.85&#10;  Q 446.84 212.95 436.98 230.98&#10;  Q 433.65 237.07 428.83 242.83&#10;  Q 427.29 244.68 426.05 245.47&#10;  Q 423.78 246.91 423.50 244.23&#10;  Q 422.37 233.70 423.12 218.81&#10;  C 423.33 214.66 424.95 211.46 427.28 208.30&#10;  C 436.42 195.93 443.59 186.28 449.00 173.47&#10;  Q 449.28 172.82 449.42 171.62&#10;  A 0.84 0.82 21.9 0 0 449.08 170.85&#10;  Q 448.53 170.46 447.99 171.01&#10;  Q 444.93 174.14 440.91 180.16&#10;  Q 437.82 184.78 431.22 191.72&#10;  Q 428.56 194.51 425.15 196.60&#10;  A 2.53 2.04 -41.9 0 1 422.70 196.73&#10;  Z"/>
<path fill="#21201e" d="&#10;  M 196.76 171.74&#10;  Q 196.43 172.92 196.87 174.03&#10;  C 199.93 181.83 202.36 187.35 203.53 194.50&#10;  C 204.47 200.30 197.92 198.36 195.23 197.12&#10;  Q 190.81 195.09 179.49 186.52&#10;  A 0.80 0.79 -50.7 0 0 178.41 186.63&#10;  L 178.23 186.83&#10;  Q 178.01 187.09 178.24 187.34&#10;  C 185.15 194.87 192.63 200.85 201.30 206.57&#10;  C 207.39 210.59 210.33 215.04 213.10 222.26&#10;  Q 215.35 228.15 218.70 232.23&#10;  C 225.31 240.27 234.73 246.39 242.49 252.53&#10;  Q 246.44 255.65 248.88 259.00&#10;  C 253.62 265.50 250.31 275.51 244.11 279.89&#10;  C 240.42 282.50 235.62 280.79 230.97 278.97&#10;  Q 225.08 276.67 219.31 273.72&#10;  Q 197.51 262.59 177.42 248.83&#10;  A 0.30 0.30 0.0 0 0 176.98 248.95&#10;  L 176.82 249.27&#10;  A 0.51 0.51 0.0 0 0 176.91 249.85&#10;  L 189.52 262.83&#10;  A 0.39 0.18 25.1 0 1 189.57 262.89&#10;  Q 190.63 264.62 189.88 265.22&#10;  Q 189.48 265.53 189.00 265.38&#10;  Q 186.74 264.64 185.62 264.59&#10;  Q 183.88 264.50 185.43 265.31&#10;  Q 186.58 265.92 188.14 266.13&#10;  C 190.42 266.45 191.81 268.05 193.88 268.86&#10;  Q 214.18 276.81 229.34 292.38&#10;  C 237.11 300.36 242.18 310.54 240.75 322.07&#10;  Q 239.44 332.62 235.64 344.02&#10;  A 0.67 0.67 0.0 0 1 234.75 344.42&#10;  Q 217.93 337.47 204.09 330.96&#10;  C 198.40 328.28 192.17 325.89 190.01 321.84&#10;  Q 187.78 317.67 182.04 304.25&#10;  Q 167.50 270.27 162.75 260.06&#10;  Q 162.22 258.92 161.28 258.28&#10;  A 0.48 0.48 0.0 0 0 160.57 258.49&#10;  Q 159.77 260.35 157.38 264.35&#10;  Q 135.68 300.59 112.77 337.78&#10;  C 109.96 342.33 106.27 346.56 100.58 346.12&#10;  Q 97.77 345.90 92.01 342.54&#10;  Q 33.41 308.40 6.67 291.57&#10;  Q -1.17 286.63 1.40 276.45&#10;  Q 1.91 274.43 5.56 268.82&#10;  Q 8.46 264.34 10.15 261.43&#10;  C 23.67 238.11 37.72 215.08 51.09 191.68&#10;  Q 77.11 146.16 80.90 139.46&#10;  Q 92.33 119.23 105.44 104.45&#10;  C 121.51 86.35 143.02 72.27 165.59 62.34&#10;  Q 188.87 52.09 213.02 45.61&#10;  A 0.83 0.83 0.0 0 1 214.02 46.15&#10;  C 220.32 64.84 227.26 79.66 237.86 100.94&#10;  Q 244.81 114.89 263.88 152.27&#10;  Q 267.45 159.27 268.88 167.76&#10;  Q 269.67 172.45 268.81 180.36&#10;  Q 268.14 186.48 267.79 193.01&#10;  A 0.92 0.92 0.0 0 1 266.56 193.83&#10;  Q 265.20 193.36 264.06 191.98&#10;  C 256.16 182.39 248.86 169.69 242.35 159.46&#10;  Q 239.71 155.31 241.25 159.98&#10;  C 246.21 175.02 253.43 188.65 259.13 201.44&#10;  Q 265.04 214.71 262.60 228.15&#10;  Q 262.29 229.89 261.57 231.20&#10;  A 2.61 2.61 0.0 0 1 258.44 232.41&#10;  C 251.98 230.18 247.14 218.28 245.35 211.78&#10;  Q 242.37 200.89 241.61 190.33&#10;  A 0.43 0.43 0.0 0 0 240.88 190.06&#10;  L 240.50 190.44&#10;  A 0.12 0.10 72.1 0 0 240.47 190.52&#10;  L 240.11 199.79&#10;  Q 240.09 200.34 239.55 200.25&#10;  Q 237.54 199.92 236.62 197.68&#10;  Q 233.78 190.69 230.35 181.46&#10;  Q 229.79 179.96 229.83 181.56&#10;  C 229.88 183.53 229.83 184.93 230.04 186.48&#10;  Q 231.58 197.67 233.51 214.75&#10;  C 233.97 218.88 234.05 225.20 227.99 224.37&#10;  C 220.94 223.40 214.92 214.79 212.62 208.31&#10;  Q 208.51 196.77 207.33 193.25&#10;  C 204.88 185.92 201.52 179.42 197.70 173.26&#10;  Q 197.19 172.43 197.09 171.76&#10;  Q 196.97 170.97 196.76 171.74&#10;  Z"/>
<path fill="#21201e" d="&#10;  M 286.84 376.26&#10;  Q 287.18 377.28 287.11 377.78&#10;  Q 285.93 386.02 285.08 393.56&#10;  A 1.19 1.18 -3.5 0 1 284.16 394.59&#10;  C 269.29 398.13 256.22 405.12 243.55 414.80&#10;  Q 242.38 415.70 241.16 415.36&#10;  Q 215.84 408.16 190.20 393.69&#10;  Q 189.35 393.21 186.81 391.18&#10;  C 185.08 389.80 184.38 387.39 184.37 385.52&#10;  Q 184.25 372.22 184.36 348.50&#10;  Q 184.38 344.05 186.35 340.21&#10;  Q 186.58 339.76 187.06 339.60&#10;  Q 188.14 339.26 190.02 340.24&#10;  Q 236.12 364.11 286.42 375.89&#10;  Q 286.73 375.96 286.84 376.26&#10;  Z"/>
<path fill="#21201e" d="&#10;  M 365.03 385.07&#10;  L 364.39 373.96&#10;  Q 364.35 373.35 364.94 373.20&#10;  Q 409.63 361.56 450.46 340.02&#10;  Q 452.59 338.90 453.84 340.96&#10;  Q 455.56 343.80 455.62 348.87&#10;  Q 455.83 363.55 455.33 384.51&#10;  Q 455.20 389.99 450.58 392.85&#10;  C 435.52 402.19 418.63 409.03 401.43 414.40&#10;  C 399.73 414.93 398.80 414.43 397.63 413.14&#10;  C 388.32 402.80 377.91 394.70 366.07 386.86&#10;  A 2.30 2.29 -75.3 0 1 365.03 385.07&#10;  Z"/>
<path fill="#21201e" d="&#10;  M 301.04 391.05&#10;  Q 301.14 390.07 302.18 381.29&#10;  C 303.25 372.16 306.72 368.27 316.07 367.41&#10;  Q 327.42 366.37 338.05 368.26&#10;  Q 343.01 369.14 345.19 370.64&#10;  C 349.98 373.94 349.79 380.42 349.25 386.01&#10;  Q 347.15 408.10 339.08 425.82&#10;  C 335.77 433.08 331.61 438.85 324.99 443.04&#10;  Q 318.22 447.33 310.05 445.99&#10;  C 303.69 444.95 301.80 432.10 301.16 426.81&#10;  Q 299.08 409.61 301.04 391.05&#10;  Z"/>
<path fill="#21201e" d="&#10;  M 450.21 562.59&#10;  Q 452.41 571.27 455.25 586.25&#10;  C 456.42 592.40 452.68 596.82 447.45 599.46&#10;  Q 441.31 602.57 434.74 604.76&#10;  Q 422.50 608.82 413.15 611.12&#10;  Q 408.63 612.23 405.85 609.48&#10;  Q 404.21 607.85 403.57 603.28&#10;  C 402.51 595.58 401.14 588.48 400.30 582.99&#10;  Q 393.73 540.20 382.23 500.50&#10;  Q 376.48 480.63 366.80 463.41&#10;  C 361.85 454.60 356.08 447.64 350.07 440.70&#10;  A 1.71 1.70 38.2 0 1 349.84 438.81&#10;  Q 358.28 422.37 362.09 403.70&#10;  A 1.36 1.10 15.2 0 1 363.77 402.96&#10;  Q 364.35 403.15 365.49 404.06&#10;  Q 385.38 419.87 398.85 439.04&#10;  Q 407.34 451.13 414.07 464.06&#10;  C 430.31 495.27 441.51 528.25 450.21 562.59&#10;  Z"/>
<path fill="#21201e" d="&#10;  M 459.56 609.53&#10;  Q 472.28 601.79 470.35 586.80&#10;  Q 469.76 582.21 466.76 568.56&#10;  Q 458.00 528.71 442.40 489.86&#10;  Q 429.37 457.39 409.93 428.72&#10;  A 0.93 0.93 0.0 0 1 410.40 427.32&#10;  Q 428.68 421.09 445.55 412.30&#10;  Q 450.82 409.55 454.71 407.57&#10;  A 1.95 1.94 -28.5 0 1 457.27 408.32&#10;  Q 496.89 475.93 530.80 535.26&#10;  Q 533.33 539.69 534.65 543.88&#10;  C 536.45 549.56 532.95 556.59 529.52 561.01&#10;  C 515.73 578.77 498.39 591.60 478.30 601.80&#10;  Q 468.52 606.77 460.89 610.40&#10;  Q 459.16 611.22 457.83 611.36&#10;  Q 456.25 611.53 457.61 610.71&#10;  Q 458.40 610.23 459.56 609.53&#10;  Z"/>
<path fill="#21201e" d="&#10;  M 171.31 577.71&#10;  Q 169.97 584.96 169.82 585.74&#10;  C 168.23 594.09 170.45 601.20 177.01 606.78&#10;  Q 178.97 608.46 182.29 610.63&#10;  A 0.22 0.22 0.0 0 1 182.18 611.04&#10;  L 181.40 611.09&#10;  Q 181.12 611.10 180.86 610.98&#10;  Q 176.79 609.10 171.81 606.96&#10;  C 150.83 597.94 132.26 585.05 116.98 568.70&#10;  Q 111.29 562.61 107.79 556.40&#10;  C 104.85 551.16 104.30 546.31 106.89 540.45&#10;  Q 109.08 535.53 111.72 530.99&#10;  Q 152.14 461.72 182.58 408.98&#10;  A 2.09 2.09 0.0 0 1 185.36 408.17&#10;  Q 206.97 419.42 229.77 427.64&#10;  A 1.08 1.07 -62.3 0 1 230.28 429.28&#10;  Q 215.31 450.13 204.65 473.42&#10;  Q 200.79 481.86 196.74 491.79&#10;  Q 179.23 534.75 171.31 577.71&#10;  Z"/>
<path fill="#21201e" d="&#10;  M 288.41 442.69&#10;  C 285.82 446.79 282.40 449.79 280.80 451.80&#10;  C 270.96 464.23 265.21 477.73 260.12 492.85&#10;  Q 254.42 509.82 250.19 527.21&#10;  Q 240.78 565.88 235.92 604.60&#10;  C 234.87 612.96 228.70 611.61 222.75 610.01&#10;  Q 211.00 606.85 205.15 604.82&#10;  C 197.74 602.26 193.21 600.90 188.33 596.92&#10;  Q 183.41 592.91 184.69 586.10&#10;  Q 195.82 526.82 220.26 475.21&#10;  C 225.16 464.87 230.19 456.20 236.33 446.84&#10;  C 244.26 434.75 254.89 423.39 266.96 417.46&#10;  Q 276.10 412.97 282.92 410.93&#10;  Q 283.49 410.77 283.80 410.82&#10;  A 0.67 0.65 -85.2 0 1 284.33 411.46&#10;  Q 284.65 426.52 288.58 441.64&#10;  Q 288.72 442.20 288.41 442.69&#10;  Z"/>
<path fill="#21201e" d="&#10;  M 348.39 531.79&#10;  C 349.74 568.38 356.66 605.10 375.87 636.77&#10;  A 0.47 0.46 71.5 0 1 375.52 637.48&#10;  Q 362.81 638.84 352.26 639.20&#10;  C 324.31 640.15 296.83 640.12 269.32 637.91&#10;  A 1.74 1.74 0.0 0 1 267.74 635.95&#10;  C 271.51 607.43 274.76 582.10 276.58 556.34&#10;  Q 279.10 520.72 282.16 483.44&#10;  Q 282.49 479.31 282.87 477.38&#10;  Q 283.38 474.81 285.34 471.92&#10;  Q 290.48 464.35 294.68 458.94&#10;  C 295.86 457.42 297.21 457.62 298.92 458.33&#10;  Q 311.25 463.51 324.05 460.08&#10;  C 329.25 458.69 333.39 456.23 338.44 453.29&#10;  A 0.78 0.77 -36.9 0 1 339.39 453.42&#10;  Q 345.05 459.35 349.37 465.35&#10;  Q 350.21 466.51 349.92 470.61&#10;  Q 347.43 505.74 348.39 531.79&#10;  Z"/>
</svg>