<?xml version="1.0" encoding="UTF-8" standalone="no"?>
<!-- Uploaded to: SVG Repo, www.svgrepo.com, Generator: SVG Repo Mixer Tools -->

<svg
   width="800px"
   height="800px"
   viewBox="-18.458 -22.75 191.151 191.151"
   version="1.1"
   id="svg5"
   sodipodi:docname="mysql-logo.svg"
   inkscape:version="1.3.2 (091e20e, 2023-11-25)"
   xmlns:inkscape="http://www.inkscape.org/namespaces/inkscape"
   xmlns:sodipodi="http://sodipodi.sourceforge.net/DTD/sodipodi-0.dtd"
   xmlns="http://www.w3.org/2000/svg"
   xmlns:svg="http://www.w3.org/2000/svg">
  <defs
     id="defs5" />
  <sodipodi:namedview
     id="namedview5"
     pagecolor="#ffffff"
     bordercolor="#000000"
     borderopacity="0.25"
     inkscape:showpageshadow="2"
     inkscape:pageopacity="0.0"
     inkscape:pagecheckerboard="0"
     inkscape:deskcolor="#d1d1d1"
     inkscape:zoom="0.295"
     inkscape:cx="400"
     inkscape:cy="400"
     inkscape:window-width="1312"
     inkscape:window-height="449"
     inkscape:window-x="0"
     inkscape:window-y="38"
     inkscape:window-maximized="0"
     inkscape:current-layer="svg5" />
  <path
     d="M-18.458 6.58h191.151v132.49H-18.458V6.58z"
     fill="none"
     id="path1" />
  <path
     d="m 30.373424,120.94173 h -7.149378 c -0.252819,-12.0676 -0.949103,-23.412663 -2.08748,-34.043477 h -0.06355 L 10.188002,120.94173 H 4.7448018 L -6.0752683,86.898253 h -0.062174 C -6.9401046,97.104939 -7.445743,108.45276 -7.6557326,120.94173 h -6.5166364 c 0.419984,-15.18708 1.475467,-29.425049 3.162307,-42.715292 h 8.8610774 L 8.1640698,109.61324 h 0.063548 L 18.604226,78.226438 h 8.478403 c 1.856768,15.566993 2.953696,29.806342 3.290783,42.715292 M 61.378923,89.426439 C 58.468052,105.22276 54.62743,116.70045 49.86118,123.86503 c -3.713531,5.51503 -7.782117,8.27531 -12.21266,8.27531 -1.181204,0 -2.638709,-0.35643 -4.365612,-1.06377 v -3.80885 c 0.844109,0.12156 1.834663,0.19064 2.973037,0.19064 2.069522,0 3.732874,-0.56918 5.001113,-1.71032 1.516914,-1.38981 2.275368,-2.95231 2.275368,-4.6806 0,-1.18534 -0.591292,-3.60853 -1.771114,-7.27786 L 33.915651,89.425057 h 7.023661 l 5.631084,18.222283 c 1.265477,4.13766 1.793216,7.02642 1.58184,8.67181 3.079411,-8.2242 5.230442,-17.191662 6.45585,-26.895475 h 6.770838 z"
     fill="#5d87a1"
     id="path2"
     style="stroke-width:1.38153" />
  <path
     d="M 156.54498,120.94173 H 136.23659 V 78.226438 h 6.83164 v 37.457212 h 13.47675 z m -25.62448,1.03199 -7.85257,-3.87517 c 0.69628,-0.57195 1.36218,-1.19087 1.96176,-1.90788 3.33775,-3.92076 5.00249,-9.71901 5.00249,-17.398892 0,-14.131591 -5.54543,-21.20084 -16.64043,-21.20084 -5.44043,0 -9.68445,1.793216 -12.71963,5.381029 -3.33497,3.923523 -4.999697,9.701049 -4.999697,17.339483 0,7.50858 1.47546,13.01671 4.427757,16.51058 2.70086,3.16506 6.77218,4.74967 12.21674,4.74967 2.03084,0 3.89451,-0.24867 5.5924,-0.75016 l 10.22327,5.95159 z m -25.43795,-9.57947 c -1.72965,-2.78239 -2.59448,-7.25023 -2.59448,-13.410441 0,-10.75515 3.26728,-16.138942 9.80877,-16.138942 3.41926,0 5.92535,1.287578 7.52792,3.85721 1.7269,2.786531 2.59587,7.214309 2.59587,13.288863 0,10.84357 -3.27006,16.26604 -9.80743,16.26604 -3.42064,0.001 -5.92671,-1.28205 -7.53065,-3.86273 m -12.787318,-3.29217 c 0,3.62235 -1.329016,6.594 -3.984286,8.92187 -2.658038,2.31819 -6.222368,3.48005 -10.68883,3.48005 -4.177724,0 -8.228343,-1.33454 -12.149103,-3.98984 l 1.836046,-3.66793 c 3.373677,1.6896 6.428221,2.52957 9.170546,2.52957 2.573776,0 4.58527,-0.57057 6.044163,-1.70204 1.457507,-1.13561 2.326483,-2.72851 2.326483,-4.74277 0,-2.53785 -1.769731,-4.70684 -5.016306,-6.52355 -2.993755,-1.64401 -8.981273,-5.081235 -8.981273,-5.081235 -3.245199,-2.365166 -4.869867,-4.904404 -4.869867,-9.087653 0,-3.462095 1.211593,-6.256915 3.636169,-8.383077 2.427337,-2.134452 5.559244,-3.198224 9.398498,-3.198224 3.964967,0 7.569356,1.06239 10.815918,3.165068 l -1.646766,3.669322 c -2.776848,-1.179819 -5.517792,-1.76973 -8.221426,-1.76973 -2.189712,0 -3.880694,0.52636 -5.056372,1.583225 -1.185345,1.05272 -1.91617,2.399704 -1.91617,4.052005 0,2.525422 1.807029,4.722042 5.142027,6.574664 3.033821,1.646774 9.170547,5.143405 9.170547,5.143405 3.328061,2.36102 4.990014,4.87678 4.990014,9.02687"
     fill="#f8981d"
     id="path3"
     style="stroke-width:1.38153" />
  <path
     d="m 165.12147,63.919394 c -4.13075,-0.10499 -7.32898,0.310843 -10.01328,1.446454 -0.77503,0.309461 -2.00735,0.309461 -2.11511,1.28896 0.41861,0.414457 0.46695,1.083114 0.8303,1.655064 0.61891,1.031997 1.69788,2.420427 2.68291,3.144344 1.08173,0.828913 2.16761,1.649538 3.30598,2.372074 2.00735,1.241989 4.28272,1.964525 6.23896,3.202368 1.13975,0.719774 2.27261,1.65092 3.41374,2.425954 0.5609,0.413075 0.92009,1.083113 1.64816,1.341458 v -0.157494 c -0.36473,-0.464192 -0.46834,-1.135611 -0.82615,-1.652301 l -1.55008,-1.494807 c -1.49756,-2.011496 -3.35847,-3.76741 -5.36583,-5.20972 -1.65229,-1.138374 -5.26636,-2.685679 -5.9364,-4.589417 l -0.10502,-0.105001 c 1.13561,-0.106375 2.48259,-0.51807 3.56156,-0.834439 1.75591,-0.46281 3.3571,-0.357814 5.1586,-0.820625 0.82892,-0.207228 1.65092,-0.466954 2.4826,-0.722536 v -0.465573 c -0.93391,-0.929764 -1.59981,-2.164844 -2.58207,-3.043493 -2.62766,-2.269841 -5.52332,-4.489947 -8.5157,-6.348095 -1.60256,-1.03476 -3.66379,-1.700653 -5.36997,-2.580683 -0.61479,-0.310842 -1.65093,-0.464191 -2.01289,-0.980881 -0.92562,-1.135612 -1.44645,-2.630418 -2.11786,-3.974639 -1.49205,-2.836266 -2.94127,-5.983374 -4.22885,-8.982657 -0.93115,-2.011497 -1.49756,-4.02023 -2.63318,-5.881141 -5.31886,-8.772666 -11.095,-14.086 -19.97266,-19.301246 -1.90789,-1.085877 -4.17772,-1.548687 -6.6023,-2.117875 l -3.8724,-0.204465 c -0.82616,-0.361958 -1.65369,-1.3442208 -2.37483,-1.8084123 -2.94539,-1.8567658 -10.528536,-5.88114 -12.69476,-0.5678056 -1.395324,3.3584809 2.063991,6.6603189 3.252099,8.3637359 0.877257,1.182583 2.014251,2.528185 2.627641,3.871025 0.36334,0.877266 0.46557,1.808412 0.8289,2.735413 0.82615,2.271224 1.59842,4.798028 2.6843,6.917283 0.56642,1.080351 1.18396,2.215961 1.90787,3.194079 0.41445,0.57195 1.1356,0.824769 1.2931,1.757297 -0.71977,1.027852 -0.77642,2.579301 -1.18949,3.869643 -1.85675,5.831406 -1.13146,13.055385 1.50033,17.340867 0.82339,1.290342 2.7879,4.130751 5.41555,3.042112 2.32648,-0.928383 1.81118,-3.869644 2.47984,-6.448946 0.15335,-0.623067 0.0525,-1.031997 0.36195,-1.440928 v 0.100857 c 0.71978,1.443691 1.44646,2.834883 2.11373,4.282719 1.60119,2.526804 4.3891,5.159986 6.71144,6.910374 1.23646,0.93391 2.21596,2.530949 3.76465,3.101518 v -0.154731 h -0.10219 c -0.31361,-0.46281 -0.77227,-0.670038 -1.18397,-1.029234 -0.93115,-0.929764 -1.96175,-2.065376 -2.6843,-3.095991 -2.16346,-2.891527 -4.07824,-6.092513 -5.77752,-9.395733 -0.83168,-1.602566 -1.54868,-3.354336 -2.21872,-4.954139 -0.31222,-0.61754 -0.31222,-1.548686 -0.83029,-1.859529 -0.77642,1.13423 -1.90789,2.116492 -2.47431,3.506304 -0.98227,2.222869 -1.0845,4.956902 -1.44922,7.800074 l -0.20309,0.09947 c -1.644,-0.413075 -2.21596,-2.113729 -2.8404,-3.55742 -1.54591,-3.66656 -1.80564,-9.551844 -0.46419,-13.782065 0.35919,-1.081733 1.9134,-4.488567 1.2931,-5.519181 -0.31084,-0.987789 -1.34422,-1.550069 -1.91064,-2.327865 -0.66588,-0.978119 -1.39532,-2.215962 -1.85952,-3.301838 -1.23783,-2.888763 -1.8609,-6.08975 -3.19405,-8.977132 -0.62306,-1.345603 -1.70479,-2.738177 -2.58068,-3.977402 -0.983626,-1.392575 -2.065356,-2.373455 -2.843145,-4.024375 -0.256962,-0.567805 -0.617539,-1.496188 -0.204471,-2.1137287 0.100879,-0.4144567 0.310845,-0.5691873 0.722538,-0.6728014 0.668654,-0.5650426 2.579278,0.153349 3.249328,0.4641914 1.91338,0.7736527 3.51318,1.4961887 5.11022,2.5793027 0.72252,0.51807 1.49755,1.498951 2.42455,1.757295 h 1.08587 c 1.64815,0.359196 3.50631,0.09947 5.05776,0.566425 2.73403,0.878648 5.21109,2.167608 7.43258,3.558801 6.75979,4.286863 12.33423,10.377995 16.0975,17.653091 0.61754,1.185346 0.88003,2.271222 1.44368,3.507684 1.08727,2.53095 2.43149,5.111633 3.51045,7.588702 1.0845,2.424572 2.11788,4.900259 3.66657,6.914519 0.77227,1.083113 3.87517,1.650919 5.26635,2.218725 1.02924,0.462809 2.6318,0.874503 3.56019,1.442309 1.75591,1.081732 3.50492,2.32372 5.15584,3.513211 0.82201,0.618922 3.40546,1.909264 3.55881,2.942642 M 112.47717,19.069657 a 8.0404593,8.0404593 0 0 0 -2.11234,0.259726 v 0.103616 h 0.0995 c 0.41584,0.824769 1.13837,1.396719 1.65368,2.116493 0.41584,0.827531 0.77642,1.648156 1.18397,2.474305 l 0.0995,-0.102231 c 0.72806,-0.515308 1.09002,-1.341458 1.09002,-2.580684 -0.31361,-0.364721 -0.36196,-0.721154 -0.62307,-1.083113 -0.30393,-0.516689 -0.97398,-0.773652 -1.3912,-1.188109"
     fill="#5d87a1"
     id="path4"
     style="stroke-width:1.38153" />
  <path
     d="m 170.03692,120.93481 h 1.0693 v -5.2332 h -1.60395 l -1.3083,3.57124 -1.42158,-3.57124 h -1.54455 v 5.2332 h 1.00989 v -3.98154 h 0.0566 l 1.48929,3.98154 h 0.7695 l 1.48376,-3.98154 z m -8.61379,0 h 1.13147 v -4.34626 h 1.48099 v -0.88833 h -4.15562 v 0.88833 h 1.54039 z"
     fill="#f8981d"
     id="path5"
     style="stroke-width:1.38153" />
</svg>
