<?xml version="1.0" encoding="UTF-8" standalone="no"?>
<!-- Uploaded to: SVG Repo, www.svgrepo.com, Generator: SVG Repo Mixer Tools -->

<svg
   width="800px"
   height="800px"
   viewBox="-18.458 -22.75 191.151 191.151"
   version="1.1"
   id="svg5"
   sodipodi:docname="mysql-logo.svg"
   inkscape:version="1.3.2 (091e20e, 2023-11-25)"
   xmlns:inkscape="http://www.inkscape.org/namespaces/inkscape"
   xmlns:sodipodi="http://sodipodi.sourceforge.net/DTD/sodipodi-0.dtd"
   xmlns="http://www.w3.org/2000/svg"
   xmlns:svg="http://www.w3.org/2000/svg">
  <defs
     id="defs5" />
  <sodipodi:namedview
     id="namedview5"
     pagecolor="#ffffff"
     bordercolor="#000000"
     borderopacity="0.25"
     inkscape:showpageshadow="2"
     inkscape:pageopacity="0.0"
     inkscape:pagecheckerboard="0"
     inkscape:deskcolor="#d1d1d1"
     inkscape:zoom="0.295"
     inkscape:cx="400"
     inkscape:cy="400"
     inkscape:window-width="1312"
     inkscape:window-height="449"
     inkscape:window-x="0"
     inkscape:window-y="38"
     inkscape:window-maximized="0"
     inkscape:current-layer="svg5" />
  <path
     d="M -24.855036,2.3887643 H 181.60258 V 145.48804 H -24.855036 Z"
     fill="none"
     id="path1"
     style="stroke-width:2.15583;stroke-dasharray:none" />
  <g
     id="g1"
     style="stroke-width:1.996;stroke-dasharray:none;fill:#333333"
     transform="matrix(1.1587541,0,0,1.1587541,-26.697926,-24.861792)">
    <path
       d="m 158.41094,128.44394 c -8.75711,-0.22257 -15.53729,0.65898 -21.22795,3.06645 -1.64305,0.65606 -4.25554,0.65606 -4.48399,2.73257 0.88745,0.87864 0.98993,2.29618 1.76022,3.5087 1.31208,2.18782 3.59947,5.13126 5.68772,6.66595 2.29324,1.75728 4.59528,3.49698 7.0086,5.02874 4.25554,2.633 9.07928,4.16476 13.22647,6.78896 2.41624,1.5259 4.81788,3.49991 7.23706,5.14297 1.18909,0.87571 1.95057,2.29618 3.49406,2.84386 v -0.33388 c -0.77322,-0.98408 -0.99287,-2.40747 -1.75142,-3.50285 l -3.28614,-3.16896 c -3.17479,-4.26432 -7.11988,-7.98683 -11.37545,-11.04449 -3.50282,-2.41333 -11.16457,-5.69359 -12.58504,-9.72947 l -0.22264,-0.2226 c 2.40747,-0.22551 5.26304,-1.0983 7.55043,-1.76899 3.7225,-0.98115 7.11699,-0.75856 10.93613,-1.73971 1.75729,-0.43932 3.49991,-0.98993 5.26306,-1.53176 v -0.98701 c -1.97987,-1.97108 -3.39157,-4.58942 -5.47394,-6.45214 -5.57058,-4.81201 -11.70932,-9.51859 -18.0531,-13.45783 -3.3974,-2.19367 -7.76716,-3.60535 -11.38423,-5.47099 -1.30334,-0.65898 -3.49993,-0.98408 -4.26728,-2.07945 -1.9623,-2.40747 -3.06644,-5.576429 -4.48982,-8.42615 -3.16311,-6.012824 -6.23543,-12.684627 -8.96507,-19.043045 -1.97402,-4.264331 -3.1748,-8.522803 -5.58229,-12.467895 C 96.150458,44.197051 83.905163,32.932895 65.084709,21.876682 61.040022,19.574646 56.22803,18.593498 51.087972,17.386832 L 42.878565,16.95337 C 41.127123,16.186027 39.372777,14.10365 37.843975,13.119574 31.59981,9.1832694 15.523699,0.65168034 10.931349,11.915838 c -2.9580572,7.119909 4.375618,14.119737 6.894382,17.730945 1.859767,2.507051 4.27017,5.359699 5.570544,8.206492 0.770273,1.859785 0.986999,3.833795 1.757251,5.799018 1.75142,4.814947 3.388617,10.171719 5.69066,14.664495 1.200798,2.290322 2.50997,4.697791 4.044644,6.771381 0.878625,1.212522 2.407448,1.748493 2.741345,3.725433 -1.525897,2.179024 -1.645994,5.468064 -2.521694,8.203562 -3.936271,12.362458 -2.398671,27.677146 3.180668,36.762276 1.74557,2.7355 5.91029,8.7571 11.480853,6.44921 4.932089,-1.96815 3.839663,-8.20356 5.257209,-13.67163 0.325098,-1.32089 0.111299,-2.18781 0.767326,-3.05474 v 0.21382 c 1.525919,3.06059 3.066465,6.00989 4.481063,9.07927 3.39449,5.35678 9.304801,10.93907 14.228113,14.64985 2.621269,1.97987 4.697788,5.36556 7.980979,6.57516 v -0.32803 h -0.216641 c -0.664846,-0.98115 -1.637196,-1.42047 -2.509991,-2.18196 -1.974019,-1.97108 -4.158869,-4.37855 -5.69066,-6.56343 -4.58649,-6.12998 -8.645784,-12.916 -12.248222,-19.91876 -1.763144,-3.39741 -3.283169,-7.111121 -4.70364,-10.50267 -0.661899,-1.309172 -0.661899,-3.283182 -1.760197,-3.942162 -1.645994,2.404544 -4.044687,4.486918 -5.245485,7.433291 -2.082392,4.712431 -2.299118,10.508531 -3.072316,16.535991 l -0.430547,0.21088 c -3.485246,-0.87571 -4.697789,-4.48106 -6.021588,-7.54166 C 37.308108,99.44884 36.757486,86.972162 39.601331,78.004182 40.362807,75.71093 43.657699,68.488514 42.342676,66.303633 41.683702,64.209541 39.492958,63.01752 38.29216,61.368608 36.880508,59.295017 35.33411,56.670815 34.350016,54.368781 31.725842,48.244664 30.404947,41.458638 27.578697,35.337449 c -1.320874,-2.85265 -3.614119,-5.804878 -5.470988,-8.432009 -2.085266,-2.95223 -4.378511,-5.031675 -6.027407,-8.531591 -0.544754,-1.203734 -1.30917,-3.171887 -0.433475,-4.48106 0.213862,-0.87864 0.658985,-1.206665 1.531766,-1.426325 1.417532,-1.197879 5.468015,0.325097 6.888507,0.984076 4.056326,1.640128 7.447868,3.171889 10.833559,5.468068 1.531728,1.098297 3.174775,3.177744 5.139996,3.725428 h 2.302021 c 3.494044,0.761488 7.433304,0.210875 10.722346,1.200809 5.796086,1.862716 11.047401,4.595284 15.756914,7.544584 14.330613,9.08806 26.148309,22.001132 34.126364,37.424183 1.30917,2.512909 1.86564,4.814943 3.06057,7.436217 2.30499,5.365561 5.15471,10.836555 7.44208,16.087889 2.29912,5.140042 4.48986,10.388442 7.77305,14.658632 1.6372,2.29618 8.21528,3.49992 11.16455,4.70365 2.18197,0.98115 5.57936,1.85393 7.54753,3.05767 3.72249,2.29325 7.43036,4.92624 10.93027,7.44793 1.74265,1.3121 7.21951,4.0476 7.54461,6.23834 M 46.806123,33.363439 a 17.045605,17.045605 0 0 0 -4.478117,0.550614 v 0.219664 h 0.210938 c 0.881572,1.748493 2.413321,2.961015 3.505767,4.48692 0.881572,1.754349 1.645994,3.494057 2.509992,5.245475 l 0.210938,-0.216727 c 1.543471,-1.092443 2.310819,-2.843863 2.310819,-5.470996 -0.664847,-0.773201 -0.767348,-1.528832 -1.320895,-2.296177 -0.644325,-1.09537 -2.064817,-1.640126 -2.949315,-2.518767"
       fill="#5d87a1"
       id="path4"
       style="stroke-width:1.996;stroke-dasharray:none;fill:#333333" />
  </g>
</svg>
