<?xml version="1.0" encoding="UTF-8" standalone="no"?>
<svg
   version="1.1"
   width="1024px"
   height="1024px"
   style="shape-rendering:geometricPrecision; text-rendering:geometricPrecision; image-rendering:optimizeQuality; fill-rule:evenodd; clip-rule:evenodd"
   id="svg69"
   sodipodi:docname="running-shoe-icon.svg"
   inkscape:version="1.3.2 (091e20e, 2023-11-25)"
   xmlns:inkscape="http://www.inkscape.org/namespaces/inkscape"
   xmlns:sodipodi="http://sodipodi.sourceforge.net/DTD/sodipodi-0.dtd"
   xmlns="http://www.w3.org/2000/svg"
   xmlns:svg="http://www.w3.org/2000/svg">
  <defs
     id="defs69" />
  <sodipodi:namedview
     id="namedview69"
     pagecolor="#ffffff"
     bordercolor="#000000"
     borderopacity="0.25"
     inkscape:showpageshadow="2"
     inkscape:pageopacity="0.0"
     inkscape:pagecheckerboard="0"
     inkscape:deskcolor="#d1d1d1"
     inkscape:zoom="0.35355339"
     inkscape:cx="545.88644"
     inkscape:cy="472.34733"
     inkscape:window-width="1312"
     inkscape:window-height="905"
     inkscape:window-x="0"
     inkscape:window-y="38"
     inkscape:window-maximized="0"
     inkscape:current-layer="svg69" />
  <g
     id="g69"
     transform="translate(-15.408613,-13.501626)"
     style="fill:#1a1a1a">
    <g
       id="g2"
       transform="matrix(1.3357796,0,0,1.4778361,-185.08137,-79.13678)"
       style="fill:#1a1a1a">
      <path
         style="opacity:1;fill:#1a1a1a"
         fill="#1b1d2c"
         d="M 584.89841,321.08715 C 585.35141,322.04515 571.619,320.292 572.5,321 c -0.333,0.167 -0.667,0.333 -1,0.5 -12.098,-7.422 -25.098,-12.589 -39,-15.5 -9,-0.667 -18,-0.667 -27,0 -5.041,1.576 -10.041,2.909 -15,4 1.071,-0.852 2.071,-1.685 3,-2.5 8.822,-7.256 17.489,-14.756 26,-22.5 9.284,-3.087 17.618,-1.421 25,5 8.901,9.396 23.72858,20.5262 40.39841,31.08715 z"
         id="path2"
         sodipodi:nodetypes="cccccccccc" />
    </g>
    <g
       id="g3"
       style="fill:#1a1a1a"
       transform="matrix(1.3357796,0,0,1.4778361,-184.60907,-88.54167)">
      <path
         style="opacity:1;fill:#1a1a1a"
         fill="#1e1f2d"
         d="m 729.5,418.5 c -17.978,6.319 -35.978,12.652 -54,19 -1.068,-24.724 5.766,-47.058 20.5,-67 8.167,-10.167 16.333,-20.333 24.5,-30.5 -28.054,19.467 -44.887,46.3 -50.5,80.5 -0.5,6.658 -0.666,13.325 -0.5,20 -34.571,11.913 -69.237,23.746 -104,35.5 -3.645,0.995 -7.312,1.828 -11,2.5 -6.137,1.035 -12.137,2.702 -18,5 -4.008,-1.941 -4.008,-2.608 0,-2 2.798,-1.63 5.465,-3.463 8,-5.5 l -4,-4 c 0.544,-0.717 1.211,-1.217 2,-1.5 l 20,-24 -56,-27 c 2.157,-2.995 4.616,-6.495 8.125,-7.5 L 527.5,397.5 c 11.874,-10.872 23.707,-21.872 35.5,-33 5.579,1.971 11.079,4.137 16.5,6.5 l 6.5,2.5 c 5.876,1.903 11.709,3.903 17.5,6 l 7.5,2 c 6.381,1.871 12.881,3.371 19.5,4.5 7.60986,0.41061 7.62864,-1.11521 11,-3.5 -11.14194,-0.20523 -18.45018,-2.01868 -32,-6.5 -20.268,-7.534 -40.601,-14.867 -61,-22 -19.215,-3.534 -36.215,0.966 -51,13.5 L 491.42893,365.21491 483.5,367.5 v 4 h -8 v 4 h -4 v 4 h -4 v -8 c 5,-0.333 7.667,-3 8,-8 h 4 v -4 c 1.643,-0.02 2.976,0.647 4,2 l 1,-1 -67.85355,22.90469 L 493,314.5 c 37.37524,-12.95588 73.36668,4.75556 109.5,21 23.616,4.78 39.116,-4.22 46.5,-27 1.034,-6.842 2.701,-13.508 5,-20 8.628,-12.193 19.461,-14.36 32.5,-6.5 22.367,19.201 37.867,43.034 46.5,71.5 6.524,20.213 8.024,40.713 4.5,61.5 -2.809,1.093 -5.476,2.26 -8,3.5 z"
         id="path3"
         sodipodi:nodetypes="cccccccccccccccccccccccccccccccccccccccccccccccccc" />
    </g>
    <g
       id="g4"
       transform="matrix(1.3357796,0,0,1.4778361,-184.60907,-88.54167)"
       style="fill:#1a1a1a">
      <path
         style="opacity:1;fill:#1a1a1a"
         fill="#212332"
         d="m 873.5,291.5 c 1.699,-0.16 3.366,0.006 5,0.5 -43.678,15.281 -87.345,30.448 -131,45.5 -2.389,-3.184 -3.722,-6.851 -4,-11 43.745,-10.564 87.078,-22.23 130,-35 z"
         id="path4" />
    </g>
    <g
       id="g5"
       style="fill:#1a1a1a"
       transform="translate(-1.6266655,28)" />
    <g
       id="g8"
       style="fill:#1a1a1a"
       transform="matrix(1.3357796,0,0,1.4778361,-184.60907,-88.54167)">
      <path
         style="opacity:1;fill:#1a1a1a"
         fill="#1b1d29"
         d="m 497.5,367.5 c -21.849,19.344 -44.183,38.178 -67,56.5 -11.502,9.247 -23.502,17.747 -36,25.5 -0.086,-0.996 0.248,-1.829 1,-2.5 L 378.38388,403.56066 373,405.5 l -11.5,6 c 3.349,-2.434 6.849,-4.767 10.5,-7 l 13.17678,-9.42678 C 390.74678,392.33122 411.237,383.924 447.5,359 l 35,-15.75 z"
         id="path8"
         sodipodi:nodetypes="cccccccccccc" />
    </g>
    <g
       id="g10"
       style="fill:#1a1a1a"
       transform="translate(-1.6266655,28)" />
    <g
       id="g11"
       transform="matrix(1.3357796,0,0,1.4778361,-184.60907,-88.54167)"
       style="fill:#1a1a1a">
      <path
         style="opacity:1;fill:#1a1a1a"
         fill="#1f2231"
         d="m 871.5,333.5 c 3.098,-0.087 3.432,0.413 1,1.5 -38.921,14.473 -77.921,28.639 -117,42.5 0.103,-2.719 -0.231,-5.385 -1,-8 0.318,-1.147 0.984,-1.981 2,-2.5 38.501,-11.037 76.835,-22.204 115,-33.5 z"
         id="path11" />
    </g>
    <g
       id="g14"
       transform="matrix(1.3357796,0,0,1.4778361,-184.60907,-88.54167)"
       style="fill:#1a1a1a">
      <path
         style="opacity:1;fill:#1a1a1a"
         fill="#212331"
         d="m 866.5,378.5 c 3.098,-0.087 3.432,0.413 1,1.5 -32.022,11.617 -64.022,23.117 -96,34.5 -2.313,-2.937 -3.646,-6.27 -4,-10 33.162,-8.539 66.162,-17.206 99,-26 z"
         id="path14" />
    </g>
    <g
       id="g16"
       style="fill:#1a1a1a"
       transform="matrix(1.3357796,0,0,1.4778361,-184.60907,-88.54167)">
      <path
         style="opacity:1;fill:#1a1a1a"
         fill="#1b1c29"
         d="m 527.5,397.5 c -0.667,3.333 -1.333,6.667 -2,10 -1.373,-0.157 -2.707,0.01 -4,0.5 l -15,11.5 48.375,-11 13,53.5 c -10.09754,8.11388 -21.57557,12.65914 -17,14.875 5.863,-2.298 -2.512,2.66 3.625,1.625 -21.702,7.766 -43.702,14.932 -66,21.5 -27.556,3.923 -55.223,5.923 -83,6 4.667,-3.333 9.333,-6.667 14,-10 36.769,-31.933 72.769,-64.766 108,-98.5 z"
         id="path16"
         sodipodi:nodetypes="cccccccccccc" />
    </g>
    <g
       id="g17"
       style="fill:#1a1a1a"
       transform="matrix(1.3357796,0,0,1.4778361,-184.60907,-88.54167)">
      <path
         style="opacity:1;fill:#1a1a1a"
         fill="#1d202d"
         d="M 396.09099,448.61612 C 390.48799,452.09112 383.231,456.475 377.5,460 c -31.388,14.903 -64.388,20.57 -99,17 -17.058,-1.702 -32.058,-8.036 -45,-19 3.178,-0.66 6.178,-1.493 9,-2.5 23.427,-2.198 45.76,-8.364 67,-18.5 l 76.98097,-42.67982 z"
         id="path17"
         sodipodi:nodetypes="cccccccc" />
    </g>
    <g
       id="g19"
       transform="matrix(1.3357796,0,0,1.4778361,-184.60907,-88.54167)"
       style="fill:#1a1a1a">
      <path
         style="opacity:1;fill:#1a1a1a"
         fill="#222533"
         d="m 873.5,417.5 c 1.373,-0.157 2.707,0.01 4,0.5 -27.672,10.611 -55.339,21.111 -83,31.5 -1.631,-3.169 -2.965,-6.502 -4,-10 27.832,-7.206 55.499,-14.539 83,-22 z"
         id="path19" />
    </g>
    <g
       id="g22"
       style="fill:#1a1a1a"
       transform="matrix(1.3357796,0,0,1.4778361,-184.60907,-88.54167)">
      <path
         style="opacity:1;fill:#1a1a1a"
         fill="#1d1f2c"
         d="m 722.5,426.5 c 4.667,-1.369 9.65507,-3.54819 13.57107,-5.59619 3.753,0.041 2.37926,-4.39834 11.16726,5.56066 20.824,7.192 24.35191,21.89606 34.22361,28.81192 C 690.53142,505.59249 602.404,519.31 533,541.5 L 423.40307,547.37868 343.5,552.5 h 98 c -59.831,0.999 -119.831,1.332 -180,1 l -13.40744,-0.11612 C 228.59823,549.51599 208.23703,541.79506 195,526.5 c -10.533,-19.167 -9.866,-37.834 2,-56 7.917,-7.707 17.417,-11.707 28.5,-12 11.744,12.207 26.077,19.707 43,22.5 50.981,7.81 97.314,-3.19 139,-33 32.914,-25.576 65.247,-51.91 97,-79 16.152,-11.596 33.486,-13.596 52,-6 l -96,90 c -23.083,20.421 -46.75,40.087 -71,59 24.047,-0.197 48.047,-1.197 72,-3 -20.579,4.414 -41.246,8.414 -62,12 -53,7.333 -106,7.333 -159,0 -10.264,-1.716 -20.264,-4.049 -30,-7 22.37118,14.92531 77.58229,17.31227 106,17.5 49.311,-1.09 97.978,-7.257 146,-18.5 46.661,-13.108 92.995,-27.442 139,-43 40.353,-14.616 80.686,-29.116 121,-43.5 z"
         id="path22"
         sodipodi:nodetypes="ccccccccccccccccccccccccccc" />
    </g>
    <g
       id="g23"
       style="fill:#1a1a1a"
       transform="matrix(1.3357796,0,0,1.4778361,-184.60907,-88.54167)">
      <path
         style="opacity:1;fill:#1a1a1a"
         fill="#eae7e2"
         d="m 482.5,457.5 c 4.055,-0.324 8.055,0.009 12,1 -1.333,3.333 -2.667,6.667 -4,10 10.456,0.487 20.789,1.654 31,3.5 -2.401,3.523 -4.234,7.356 -5.5,11.5 -1.29,2.292 -2.957,4.292 -5,6 -0.692,-0.525 -1.192,-1.192 -1.5,-2 0.735,-3.922 1.735,-7.756 3,-11.5 -8.667,-0.667 -17.333,-0.667 -26,0 -4.534,4.199 -8.701,8.699 -12.5,13.5 3.428,-8.341 7.261,-16.674 11.5,-25 -3.959,-0.827 -7.959,-1.327 -12,-1.5 -1.894,-1.079 -2.227,-2.413 -1,-4 3.525,-0.179 6.859,-0.679 10,-1.5 z"
         id="path23" />
    </g>
    <g
       id="g31"
       transform="matrix(1.3357796,0,0,1.4778361,-184.60907,-88.54167)"
       style="fill:#1a1a1a">
      <path
         style="opacity:1;fill:#1a1a1a"
         fill="#1d1e2b"
         d="m 781.5,455.5 c 4.236,2.223 8.236,4.889 12,8 -47.02523,39.72918 -91.56306,64.94132 -203,82.5 -6.00307,0.56264 -19.33293,2.96896 -33.5,3.5 -9.833,-0.167 -19.667,-0.333 -29.5,-0.5 -2.965,-2.089 -5.799,-1.922 -8.5,0.5 -5.519,-0.401 -11.186,-0.401 -17,0 -7.528,-0.37 -15.028,-1.036 -22.5,-2 -4.343,0.209 -8.677,0.542 -13,1 -2.215,-0.17 -4.215,-0.837 -6,-2 -1.667,1.333 -3.333,1.333 -5,0 -1.773,1.872 -3.773,1.705 -6,-0.5 -4.655,-0.499 -9.321,-0.666 -14,-0.5 24.975,-1.194 49.975,-3.694 75,-7.5 75.036,-10.711 147.703,-30.044 218,-58 40.45259,-16.14778 46.83433,-28.60942 53,-24.5 z"
         id="path31"
         sodipodi:nodetypes="cccccccccccccccc" />
    </g>
    <g
       id="g38"
       style="fill:#1a1a1a"
       transform="matrix(1.3357796,0,0,1.4778361,-184.60907,-88.54167)">
      <path
         style="opacity:1;fill:#1a1a1a"
         fill="#171a2a"
         d="M 465.79289,539.30761 557,549.5 534.46699,550.97265 441.5,552.5 h -98 v -3 c 2.897,0.375 100.66886,-10.02449 103.10586,-11.39949 C 443.60586,537.76751 345.5,547.333 342.5,547 Z"
         id="path38"
         sodipodi:nodetypes="ccccccccc" />
    </g>
  </g>
</svg>
